G04 Layer_Physical_Order=4*
G04 Layer_Color=16711680*
%FSLAX44Y44*%
%MOMM*%
G71*
G01*
G75*
G04:AMPARAMS|DCode=13|XSize=3.95mm|YSize=1.5mm|CornerRadius=0mm|HoleSize=0mm|Usage=FLASHONLY|Rotation=315.000|XOffset=0mm|YOffset=0mm|HoleType=Round|Shape=Rectangle|*
%AMROTATEDRECTD13*
4,1,4,-1.9269,0.8662,-0.8662,1.9269,1.9269,-0.8662,0.8662,-1.9269,-1.9269,0.8662,0.0*
%
%ADD13ROTATEDRECTD13*%

%ADD15R,1.5000X3.9500*%
G04:AMPARAMS|DCode=17|XSize=3.95mm|YSize=1.5mm|CornerRadius=0mm|HoleSize=0mm|Usage=FLASHONLY|Rotation=225.000|XOffset=0mm|YOffset=0mm|HoleType=Round|Shape=Rectangle|*
%AMROTATEDRECTD17*
4,1,4,0.8662,1.9269,1.9269,0.8662,-0.8662,-1.9269,-1.9269,-0.8662,0.8662,1.9269,0.0*
%
%ADD17ROTATEDRECTD17*%

%ADD22R,3.9500X1.5000*%
%ADD28C,0.2540*%
%ADD29C,0.1270*%
%ADD30C,0.1524*%
%ADD31C,3.2000*%
%ADD32C,1.5000*%
%ADD33R,1.5000X1.5000*%
%ADD34C,0.5588*%
%ADD35C,0.3556*%
G36*
X1511899Y965139D02*
X1499745Y952986D01*
X1506880Y945852D01*
X1514014Y938717D01*
X1526168Y950870D01*
X1551072Y925966D01*
X1538919Y913812D01*
X1546054Y906678D01*
X1553188Y899543D01*
X1565341Y911697D01*
X1595856Y881182D01*
Y837790D01*
X1577570D01*
Y827700D01*
Y817610D01*
X1595856D01*
Y782390D01*
X1577570D01*
Y772300D01*
Y762210D01*
X1595856D01*
Y718812D01*
X1565317Y688273D01*
X1553188Y700403D01*
X1546054Y693268D01*
X1538919Y686134D01*
X1551048Y674004D01*
X1526144Y649100D01*
X1514014Y661229D01*
X1506880Y654094D01*
X1499745Y646960D01*
X1511875Y634831D01*
X1481188Y604144D01*
X1439870D01*
Y621308D01*
X1429780D01*
X1419690D01*
Y604144D01*
X1384470D01*
Y621308D01*
X1374380D01*
X1364290D01*
Y604144D01*
X1318908D01*
X1288475Y634577D01*
X1300605Y646706D01*
X1293470Y653840D01*
X1286336Y660975D01*
X1274206Y648846D01*
X1249302Y673750D01*
X1261431Y685880D01*
X1254296Y693014D01*
X1247162Y700149D01*
X1235033Y688019D01*
X1204144Y718908D01*
Y881038D01*
X1234779Y911673D01*
X1246908Y899543D01*
X1254042Y906678D01*
X1261177Y913812D01*
X1249048Y925942D01*
X1273952Y950846D01*
X1286082Y938717D01*
X1293216Y945852D01*
X1300351Y952986D01*
X1288221Y965115D01*
X1318962Y995856D01*
X1364290D01*
Y978384D01*
X1374380D01*
X1384470D01*
Y995856D01*
X1419690D01*
Y978384D01*
X1429780D01*
X1439870D01*
Y995856D01*
X1481182D01*
X1511899Y965139D01*
D02*
G37*
%LPC*%
G36*
X1244959Y747930D02*
X1236270D01*
Y739241D01*
X1237621Y739418D01*
X1240063Y740430D01*
X1242161Y742039D01*
X1243770Y744137D01*
X1244782Y746579D01*
X1244959Y747930D01*
D02*
G37*
G36*
X1233730Y759159D02*
X1232379Y758982D01*
X1229937Y757970D01*
X1227839Y756361D01*
X1226230Y754263D01*
X1225218Y751821D01*
X1225041Y750470D01*
X1233730D01*
Y759159D01*
D02*
G37*
G36*
X1236270D02*
Y750470D01*
X1244959D01*
X1244782Y751821D01*
X1243770Y754263D01*
X1242161Y756361D01*
X1240063Y757970D01*
X1237621Y758982D01*
X1236270Y759159D01*
D02*
G37*
G36*
X1355344Y705483D02*
X1355218Y705458D01*
X1355090Y705471D01*
X1351954Y705162D01*
X1351710Y705088D01*
X1351456Y705063D01*
X1348440Y704148D01*
X1348215Y704028D01*
X1347971Y703954D01*
X1345191Y702468D01*
X1344994Y702306D01*
X1344994D01*
X1344994Y702306D01*
X1344769Y702186D01*
X1342333Y700186D01*
X1342171Y699989D01*
X1341974Y699827D01*
X1339974Y697391D01*
X1339854Y697166D01*
X1339854Y697166D01*
X1339854Y697166D01*
X1339692Y696969D01*
X1338206Y694189D01*
X1338132Y693945D01*
X1338012Y693720D01*
X1337097Y690704D01*
X1337072Y690450D01*
X1336998Y690206D01*
X1336689Y687070D01*
X1336714Y686816D01*
Y686816D01*
Y686816D01*
X1336689Y686562D01*
X1336998Y683426D01*
X1337072Y683182D01*
X1337097Y682928D01*
X1338012Y679912D01*
X1338132Y679687D01*
X1338206Y679443D01*
X1339692Y676663D01*
X1339854Y676466D01*
Y676466D01*
X1339854Y676466D01*
X1339974Y676241D01*
X1341974Y673805D01*
X1342171Y673643D01*
X1342333Y673446D01*
X1344769Y671446D01*
X1344994Y671326D01*
X1344994Y671326D01*
X1344994Y671326D01*
X1345191Y671164D01*
X1347971Y669678D01*
X1348215Y669604D01*
X1348440Y669484D01*
X1351456Y668569D01*
X1351710Y668544D01*
X1351954Y668470D01*
X1355090Y668161D01*
X1355218Y668174D01*
X1355344Y668149D01*
X1355470Y668174D01*
X1355598Y668161D01*
X1358734Y668470D01*
X1358978Y668544D01*
X1359232Y668569D01*
X1362248Y669484D01*
X1362473Y669604D01*
X1362717Y669678D01*
X1365497Y671164D01*
X1365694Y671326D01*
X1365694D01*
X1365694Y671326D01*
X1365919Y671446D01*
X1368355Y673446D01*
X1368517Y673643D01*
X1368714Y673805D01*
X1370714Y676241D01*
X1370834Y676466D01*
X1370834Y676466D01*
X1370834Y676466D01*
X1370996Y676663D01*
X1372482Y679443D01*
X1372556Y679687D01*
X1372676Y679912D01*
X1373591Y682928D01*
X1373616Y683182D01*
X1373690Y683426D01*
X1373999Y686562D01*
X1373974Y686816D01*
Y686816D01*
Y686816D01*
X1373999Y687070D01*
X1373690Y690206D01*
X1373616Y690450D01*
X1373591Y690704D01*
X1372676Y693720D01*
X1372556Y693945D01*
X1372482Y694189D01*
X1370996Y696969D01*
X1370834Y697166D01*
Y697166D01*
X1370834Y697166D01*
X1370714Y697391D01*
X1368714Y699827D01*
X1368517Y699989D01*
X1368355Y700186D01*
X1365919Y702186D01*
X1365694Y702306D01*
X1365694Y702306D01*
X1365694Y702306D01*
X1365497Y702468D01*
X1362717Y703954D01*
X1362473Y704028D01*
X1362248Y704148D01*
X1359232Y705063D01*
X1358978Y705088D01*
X1358734Y705162D01*
X1355598Y705471D01*
X1355470Y705458D01*
X1355344Y705483D01*
D02*
G37*
G36*
X1260400Y759327D02*
X1257779Y758982D01*
X1255337Y757970D01*
X1253239Y756361D01*
X1251630Y754263D01*
X1250618Y751821D01*
X1250273Y749200D01*
X1250618Y746579D01*
X1251630Y744137D01*
X1253239Y742039D01*
X1255337Y740430D01*
X1257779Y739418D01*
X1260400Y739073D01*
X1263021Y739418D01*
X1265463Y740430D01*
X1267561Y742039D01*
X1269170Y744137D01*
X1270182Y746579D01*
X1270527Y749200D01*
X1270182Y751821D01*
X1269170Y754263D01*
X1267561Y756361D01*
X1265463Y757970D01*
X1263021Y758982D01*
X1260400Y759327D01*
D02*
G37*
G36*
X1233730Y747930D02*
X1225041D01*
X1225218Y746579D01*
X1226230Y744137D01*
X1227839Y742039D01*
X1229937Y740430D01*
X1232379Y739418D01*
X1233730Y739241D01*
Y747930D01*
D02*
G37*
G36*
X1511554Y773301D02*
X1511428Y773276D01*
X1511300Y773289D01*
X1508164Y772980D01*
X1507920Y772906D01*
X1507666Y772881D01*
X1504650Y771966D01*
X1504425Y771846D01*
X1504181Y771772D01*
X1501401Y770286D01*
X1501204Y770124D01*
X1501204D01*
X1501204Y770124D01*
X1500979Y770004D01*
X1498543Y768004D01*
X1498381Y767807D01*
X1498184Y767645D01*
X1496184Y765209D01*
X1496064Y764984D01*
X1496064Y764984D01*
X1496064Y764984D01*
X1495902Y764787D01*
X1494416Y762007D01*
X1494342Y761763D01*
X1494222Y761538D01*
X1493307Y758522D01*
X1493282Y758268D01*
X1493208Y758024D01*
X1492899Y754888D01*
X1492924Y754634D01*
Y754634D01*
Y754634D01*
X1492899Y754380D01*
X1493208Y751244D01*
X1493282Y751000D01*
X1493307Y750746D01*
X1494222Y747730D01*
X1494342Y747505D01*
X1494416Y747261D01*
X1495902Y744481D01*
X1496064Y744284D01*
Y744284D01*
X1496064Y744284D01*
X1496184Y744059D01*
X1498184Y741623D01*
X1498381Y741461D01*
X1498543Y741264D01*
X1500979Y739264D01*
X1501204Y739144D01*
X1501204Y739144D01*
X1501204Y739144D01*
X1501401Y738982D01*
X1504181Y737496D01*
X1504425Y737422D01*
X1504650Y737302D01*
X1507666Y736387D01*
X1507920Y736362D01*
X1508164Y736288D01*
X1511300Y735979D01*
X1511428Y735992D01*
X1511554Y735967D01*
X1511680Y735992D01*
X1511808Y735979D01*
X1514944Y736288D01*
X1515188Y736362D01*
X1515442Y736387D01*
X1518458Y737302D01*
X1518683Y737422D01*
X1518927Y737496D01*
X1521707Y738982D01*
X1521904Y739144D01*
X1521904D01*
X1521904Y739144D01*
X1522129Y739264D01*
X1524565Y741264D01*
X1524727Y741461D01*
X1524924Y741623D01*
X1526924Y744059D01*
X1527044Y744284D01*
X1527044Y744284D01*
X1527044Y744284D01*
X1527206Y744481D01*
X1528692Y747261D01*
X1528766Y747505D01*
X1528886Y747730D01*
X1529801Y750746D01*
X1529826Y751000D01*
X1529900Y751244D01*
X1530209Y754380D01*
X1530184Y754634D01*
Y754634D01*
Y754634D01*
X1530209Y754888D01*
X1529900Y758024D01*
X1529826Y758268D01*
X1529801Y758522D01*
X1528886Y761538D01*
X1528766Y761763D01*
X1528692Y762007D01*
X1527206Y764787D01*
X1527044Y764984D01*
Y764984D01*
X1527044Y764984D01*
X1526924Y765209D01*
X1524924Y767645D01*
X1524727Y767807D01*
X1524565Y768004D01*
X1522129Y770004D01*
X1521904Y770124D01*
X1521904Y770124D01*
X1521904Y770124D01*
X1521707Y770286D01*
X1518927Y771772D01*
X1518683Y771846D01*
X1518458Y771966D01*
X1515442Y772881D01*
X1515188Y772906D01*
X1514944Y772980D01*
X1511808Y773289D01*
X1511680Y773276D01*
X1511554Y773301D01*
D02*
G37*
G36*
X1575030Y782390D02*
X1556550D01*
X1555559Y782193D01*
X1554719Y781631D01*
X1554157Y780791D01*
X1553960Y779800D01*
Y773570D01*
X1575030D01*
Y782390D01*
D02*
G37*
G36*
X1360932Y790807D02*
X1358851Y790393D01*
X1357086Y789214D01*
X1355907Y787449D01*
X1355493Y785368D01*
X1355907Y783287D01*
X1357086Y781522D01*
X1358851Y780343D01*
X1360932Y779930D01*
X1363013Y780343D01*
X1364778Y781522D01*
X1365957Y783287D01*
X1366371Y785368D01*
X1365957Y787449D01*
X1364778Y789214D01*
X1363013Y790393D01*
X1360932Y790807D01*
D02*
G37*
G36*
X1575030Y771030D02*
X1553960D01*
Y764800D01*
X1554157Y763809D01*
X1554719Y762969D01*
X1555559Y762407D01*
X1556550Y762210D01*
X1575030D01*
Y771030D01*
D02*
G37*
G36*
X1235000Y784727D02*
X1232379Y784382D01*
X1229937Y783370D01*
X1227839Y781761D01*
X1226230Y779663D01*
X1225218Y777221D01*
X1224873Y774600D01*
X1225218Y771979D01*
X1226230Y769537D01*
X1227839Y767439D01*
X1229937Y765830D01*
X1232379Y764818D01*
X1235000Y764473D01*
X1237621Y764818D01*
X1240063Y765830D01*
X1242161Y767439D01*
X1243770Y769537D01*
X1244782Y771979D01*
X1245127Y774600D01*
X1244782Y777221D01*
X1243770Y779663D01*
X1242161Y781761D01*
X1240063Y783370D01*
X1237621Y784382D01*
X1235000Y784727D01*
D02*
G37*
G36*
X1260400D02*
X1257779Y784382D01*
X1255337Y783370D01*
X1253239Y781761D01*
X1251630Y779663D01*
X1250618Y777221D01*
X1250273Y774600D01*
X1250618Y771979D01*
X1251630Y769537D01*
X1253239Y767439D01*
X1255337Y765830D01*
X1257779Y764818D01*
X1260400Y764473D01*
X1263021Y764818D01*
X1265463Y765830D01*
X1267561Y767439D01*
X1269170Y769537D01*
X1270182Y771979D01*
X1270527Y774600D01*
X1270182Y777221D01*
X1269170Y779663D01*
X1267561Y781761D01*
X1265463Y783370D01*
X1263021Y784382D01*
X1260400Y784727D01*
D02*
G37*
G36*
X1381880Y644918D02*
X1375650D01*
Y623848D01*
X1384470D01*
Y642328D01*
X1384273Y643319D01*
X1383711Y644159D01*
X1382871Y644721D01*
X1381880Y644918D01*
D02*
G37*
G36*
X1311063Y669637D02*
X1296164Y654738D01*
X1302401Y648502D01*
X1315468Y661569D01*
X1316030Y662410D01*
X1316227Y663401D01*
X1316030Y664392D01*
X1315468Y665232D01*
X1311063Y669637D01*
D02*
G37*
G36*
X1489287Y669891D02*
X1484882Y665486D01*
X1484321Y664646D01*
X1484123Y663655D01*
X1484321Y662663D01*
X1484882Y661823D01*
X1497949Y648756D01*
X1504186Y654993D01*
X1489287Y669891D01*
D02*
G37*
G36*
X1428510Y644918D02*
X1422280D01*
X1421289Y644721D01*
X1420449Y644159D01*
X1419887Y643319D01*
X1419690Y642328D01*
Y623848D01*
X1428510D01*
Y644918D01*
D02*
G37*
G36*
X1437280D02*
X1431050D01*
Y623848D01*
X1439870D01*
Y642328D01*
X1439673Y643319D01*
X1439111Y644159D01*
X1438271Y644721D01*
X1437280Y644918D01*
D02*
G37*
G36*
X1373110D02*
X1366880D01*
X1365889Y644721D01*
X1365049Y644159D01*
X1364487Y643319D01*
X1364290Y642328D01*
Y623848D01*
X1373110D01*
Y644918D01*
D02*
G37*
G36*
X1528461Y709065D02*
X1524056Y704660D01*
X1523494Y703819D01*
X1523297Y702828D01*
X1523494Y701837D01*
X1524056Y700997D01*
X1537123Y687930D01*
X1543360Y694166D01*
X1528461Y709065D01*
D02*
G37*
G36*
X1263857Y715771D02*
X1262866Y715574D01*
X1262025Y715012D01*
X1248958Y701945D01*
X1255194Y695708D01*
X1270093Y710607D01*
X1265688Y715012D01*
X1264848Y715574D01*
X1263857Y715771D01*
D02*
G37*
G36*
X1536493Y716025D02*
X1535502Y715827D01*
X1534662Y715266D01*
X1530257Y710861D01*
X1545156Y695962D01*
X1551392Y702199D01*
X1538325Y715266D01*
X1537484Y715827D01*
X1536493Y716025D01*
D02*
G37*
G36*
X1303030Y676597D02*
X1302039Y676400D01*
X1301199Y675838D01*
X1288132Y662771D01*
X1294368Y656535D01*
X1309267Y671433D01*
X1304861Y675838D01*
X1304021Y676400D01*
X1303030Y676597D01*
D02*
G37*
G36*
X1497320Y676851D02*
X1496329Y676654D01*
X1495488Y676092D01*
X1491083Y671687D01*
X1505982Y656788D01*
X1512218Y663025D01*
X1499151Y676092D01*
X1498311Y676654D01*
X1497320Y676851D01*
D02*
G37*
G36*
X1271889Y708811D02*
X1256991Y693912D01*
X1263227Y687676D01*
X1276294Y700743D01*
X1276856Y701583D01*
X1277053Y702574D01*
X1276856Y703565D01*
X1276294Y704406D01*
X1271889Y708811D01*
D02*
G37*
G36*
X1235000Y810127D02*
X1232379Y809782D01*
X1229937Y808770D01*
X1227839Y807161D01*
X1226230Y805063D01*
X1225218Y802621D01*
X1224873Y800000D01*
X1225218Y797379D01*
X1226230Y794937D01*
X1227839Y792839D01*
X1229937Y791230D01*
X1232379Y790218D01*
X1235000Y789873D01*
X1237621Y790218D01*
X1240063Y791230D01*
X1242161Y792839D01*
X1243770Y794937D01*
X1244782Y797379D01*
X1245127Y800000D01*
X1244782Y802621D01*
X1243770Y805063D01*
X1242161Y807161D01*
X1240063Y808770D01*
X1237621Y809782D01*
X1235000Y810127D01*
D02*
G37*
G36*
X1294114Y943157D02*
X1287878Y936921D01*
X1300945Y923854D01*
X1301785Y923292D01*
X1302776Y923095D01*
X1303767Y923292D01*
X1304608Y923854D01*
X1309013Y928259D01*
X1294114Y943157D01*
D02*
G37*
G36*
X1505982Y943158D02*
X1491083Y928259D01*
X1495488Y923854D01*
X1496329Y923292D01*
X1497320Y923095D01*
X1498311Y923292D01*
X1499151Y923854D01*
X1512218Y936921D01*
X1505982Y943158D01*
D02*
G37*
G36*
X1302147Y951190D02*
X1295910Y944954D01*
X1310809Y930055D01*
X1315214Y934460D01*
X1315775Y935300D01*
X1315973Y936291D01*
X1315775Y937282D01*
X1315214Y938123D01*
X1302147Y951190D01*
D02*
G37*
G36*
X1545156Y903984D02*
X1530257Y889085D01*
X1534662Y884680D01*
X1535502Y884118D01*
X1536493Y883921D01*
X1537484Y884118D01*
X1538325Y884680D01*
X1551392Y897747D01*
X1545156Y903984D01*
D02*
G37*
G36*
X1262973Y912016D02*
X1256737Y905780D01*
X1271635Y890881D01*
X1276040Y895286D01*
X1276602Y896127D01*
X1276799Y897118D01*
X1276602Y898109D01*
X1276040Y898949D01*
X1262973Y912016D01*
D02*
G37*
G36*
X1537123Y912016D02*
X1524056Y898949D01*
X1523494Y898109D01*
X1523297Y897118D01*
X1523494Y896127D01*
X1524056Y895286D01*
X1528461Y890881D01*
X1543360Y905780D01*
X1537123Y912016D01*
D02*
G37*
G36*
X1384470Y975844D02*
X1375650D01*
Y954774D01*
X1381880D01*
X1382871Y954971D01*
X1383711Y955533D01*
X1384273Y956373D01*
X1384470Y957364D01*
Y975844D01*
D02*
G37*
G36*
X1428510Y975844D02*
X1419690D01*
Y957364D01*
X1419887Y956373D01*
X1420449Y955533D01*
X1421289Y954971D01*
X1422280Y954774D01*
X1428510D01*
Y975844D01*
D02*
G37*
G36*
X1439870D02*
X1431050D01*
Y954774D01*
X1437280D01*
X1438271Y954971D01*
X1439111Y955533D01*
X1439673Y956373D01*
X1439870Y957364D01*
Y975844D01*
D02*
G37*
G36*
X1497949Y951190D02*
X1484882Y938123D01*
X1484321Y937282D01*
X1484123Y936291D01*
X1484321Y935300D01*
X1484882Y934460D01*
X1489287Y930055D01*
X1504186Y944954D01*
X1497949Y951190D01*
D02*
G37*
G36*
X1355344Y932051D02*
X1355218Y932026D01*
X1355090Y932039D01*
X1351954Y931730D01*
X1351710Y931656D01*
X1351456Y931631D01*
X1348440Y930716D01*
X1348215Y930596D01*
X1347971Y930522D01*
X1345191Y929036D01*
X1344994Y928874D01*
X1344994D01*
X1344994Y928874D01*
X1344769Y928754D01*
X1342333Y926754D01*
X1342171Y926557D01*
X1341974Y926395D01*
X1339974Y923959D01*
X1339854Y923734D01*
X1339854Y923734D01*
X1339854Y923734D01*
X1339692Y923537D01*
X1338206Y920757D01*
X1338132Y920513D01*
X1338012Y920288D01*
X1337097Y917272D01*
X1337072Y917018D01*
X1336998Y916774D01*
X1336689Y913638D01*
X1336714Y913384D01*
Y913384D01*
Y913384D01*
X1336689Y913130D01*
X1336998Y909994D01*
X1337072Y909750D01*
X1337097Y909496D01*
X1338012Y906480D01*
X1338132Y906255D01*
X1338206Y906011D01*
X1339692Y903231D01*
X1339854Y903034D01*
Y903034D01*
X1339854Y903034D01*
X1339974Y902809D01*
X1341974Y900373D01*
X1342171Y900211D01*
X1342333Y900014D01*
X1344769Y898014D01*
X1344994Y897894D01*
X1344994Y897894D01*
X1344994Y897894D01*
X1345191Y897732D01*
X1347971Y896246D01*
X1348215Y896172D01*
X1348440Y896052D01*
X1351456Y895137D01*
X1351710Y895112D01*
X1351954Y895038D01*
X1355090Y894729D01*
X1355218Y894742D01*
X1355344Y894717D01*
X1355470Y894742D01*
X1355598Y894729D01*
X1358734Y895038D01*
X1358978Y895112D01*
X1359232Y895137D01*
X1362248Y896052D01*
X1362473Y896172D01*
X1362717Y896246D01*
X1365497Y897732D01*
X1365694Y897894D01*
X1365694D01*
X1365694Y897894D01*
X1365919Y898014D01*
X1368355Y900014D01*
X1368517Y900211D01*
X1368714Y900373D01*
X1370714Y902809D01*
X1370834Y903034D01*
X1370834Y903034D01*
X1370834Y903034D01*
X1370996Y903231D01*
X1372482Y906011D01*
X1372556Y906255D01*
X1372676Y906480D01*
X1373591Y909496D01*
X1373616Y909750D01*
X1373690Y909994D01*
X1373999Y913130D01*
X1373974Y913384D01*
Y913384D01*
Y913384D01*
X1373999Y913638D01*
X1373690Y916774D01*
X1373616Y917018D01*
X1373591Y917272D01*
X1372676Y920288D01*
X1372556Y920513D01*
X1372482Y920757D01*
X1370996Y923537D01*
X1370834Y923734D01*
Y923734D01*
X1370834Y923734D01*
X1370714Y923959D01*
X1368714Y926395D01*
X1368517Y926557D01*
X1368355Y926754D01*
X1365919Y928754D01*
X1365694Y928874D01*
X1365694Y928874D01*
X1365694Y928874D01*
X1365497Y929036D01*
X1362717Y930522D01*
X1362473Y930596D01*
X1362248Y930716D01*
X1359232Y931631D01*
X1358978Y931656D01*
X1358734Y931730D01*
X1355598Y932039D01*
X1355470Y932026D01*
X1355344Y932051D01*
D02*
G37*
G36*
X1373110Y975844D02*
X1364290D01*
Y957364D01*
X1364487Y956373D01*
X1365049Y955533D01*
X1365889Y954971D01*
X1366880Y954774D01*
X1373110D01*
Y975844D01*
D02*
G37*
G36*
X1261670Y809959D02*
Y801270D01*
X1270359D01*
X1270182Y802621D01*
X1269170Y805063D01*
X1267561Y807161D01*
X1265463Y808770D01*
X1263021Y809782D01*
X1261670Y809959D01*
D02*
G37*
G36*
X1235000Y835527D02*
X1232379Y835182D01*
X1229937Y834170D01*
X1227839Y832561D01*
X1226230Y830463D01*
X1225218Y828021D01*
X1224873Y825400D01*
X1225218Y822779D01*
X1226230Y820337D01*
X1227839Y818239D01*
X1229937Y816630D01*
X1232379Y815618D01*
X1235000Y815273D01*
X1237621Y815618D01*
X1240063Y816630D01*
X1242161Y818239D01*
X1243770Y820337D01*
X1244782Y822779D01*
X1245127Y825400D01*
X1244782Y828021D01*
X1243770Y830463D01*
X1242161Y832561D01*
X1240063Y834170D01*
X1237621Y835182D01*
X1235000Y835527D01*
D02*
G37*
G36*
X1260400D02*
X1257779Y835182D01*
X1255337Y834170D01*
X1253239Y832561D01*
X1251630Y830463D01*
X1250618Y828021D01*
X1250273Y825400D01*
X1250618Y822779D01*
X1251630Y820337D01*
X1253239Y818239D01*
X1255337Y816630D01*
X1257779Y815618D01*
X1260400Y815273D01*
X1263021Y815618D01*
X1265463Y816630D01*
X1267561Y818239D01*
X1269170Y820337D01*
X1270182Y822779D01*
X1270527Y825400D01*
X1270182Y828021D01*
X1269170Y830463D01*
X1267561Y832561D01*
X1265463Y834170D01*
X1263021Y835182D01*
X1260400Y835527D01*
D02*
G37*
G36*
X1259130Y798730D02*
X1250441D01*
X1250618Y797379D01*
X1251630Y794937D01*
X1253239Y792839D01*
X1255337Y791230D01*
X1257779Y790218D01*
X1259130Y790041D01*
Y798730D01*
D02*
G37*
G36*
X1270359D02*
X1261670D01*
Y790041D01*
X1263021Y790218D01*
X1265463Y791230D01*
X1267561Y792839D01*
X1269170Y794937D01*
X1270182Y797379D01*
X1270359Y798730D01*
D02*
G37*
G36*
X1259130Y809959D02*
X1257779Y809782D01*
X1255337Y808770D01*
X1253239Y807161D01*
X1251630Y805063D01*
X1250618Y802621D01*
X1250441Y801270D01*
X1259130D01*
Y809959D01*
D02*
G37*
G36*
X1242500Y860890D02*
X1227500D01*
X1226509Y860693D01*
X1225669Y860131D01*
X1225107Y859291D01*
X1224910Y858300D01*
Y843300D01*
X1225107Y842309D01*
X1225669Y841469D01*
X1226509Y840907D01*
X1227500Y840710D01*
X1242500D01*
X1243491Y840907D01*
X1244331Y841469D01*
X1244893Y842309D01*
X1245090Y843300D01*
Y858300D01*
X1244893Y859291D01*
X1244331Y860131D01*
X1243491Y860693D01*
X1242500Y860890D01*
D02*
G37*
G36*
X1511554Y864233D02*
X1511428Y864208D01*
X1511300Y864221D01*
X1508164Y863912D01*
X1507920Y863838D01*
X1507666Y863813D01*
X1504650Y862898D01*
X1504425Y862778D01*
X1504181Y862704D01*
X1501401Y861218D01*
X1501204Y861056D01*
X1501204D01*
X1501204Y861056D01*
X1500979Y860936D01*
X1498543Y858936D01*
X1498381Y858739D01*
X1498184Y858577D01*
X1496184Y856141D01*
X1496064Y855916D01*
X1496064Y855916D01*
X1496064Y855916D01*
X1495902Y855719D01*
X1494416Y852939D01*
X1494342Y852695D01*
X1494222Y852470D01*
X1493307Y849454D01*
X1493282Y849200D01*
X1493208Y848956D01*
X1492899Y845820D01*
X1492924Y845566D01*
Y845566D01*
Y845566D01*
X1492899Y845312D01*
X1493208Y842176D01*
X1493282Y841932D01*
X1493307Y841678D01*
X1494222Y838662D01*
X1494342Y838437D01*
X1494416Y838193D01*
X1495902Y835413D01*
X1496064Y835216D01*
Y835216D01*
X1496064Y835216D01*
X1496184Y834991D01*
X1498184Y832555D01*
X1498381Y832393D01*
X1498543Y832196D01*
X1500979Y830196D01*
X1501204Y830076D01*
X1501204Y830076D01*
X1501204Y830076D01*
X1501401Y829914D01*
X1504181Y828428D01*
X1504425Y828354D01*
X1504650Y828234D01*
X1507666Y827319D01*
X1507920Y827294D01*
X1508164Y827220D01*
X1511300Y826911D01*
X1511428Y826924D01*
X1511554Y826899D01*
X1511680Y826924D01*
X1511808Y826911D01*
X1514944Y827220D01*
X1515188Y827294D01*
X1515442Y827319D01*
X1518458Y828234D01*
X1518683Y828354D01*
X1518927Y828428D01*
X1521707Y829914D01*
X1521904Y830076D01*
X1521904D01*
X1521904Y830076D01*
X1522129Y830196D01*
X1524565Y832196D01*
X1524727Y832393D01*
X1524924Y832555D01*
X1526924Y834991D01*
X1527044Y835216D01*
X1527044Y835216D01*
X1527044Y835216D01*
X1527206Y835413D01*
X1528692Y838193D01*
X1528766Y838437D01*
X1528886Y838662D01*
X1529801Y841678D01*
X1529826Y841932D01*
X1529900Y842176D01*
X1530209Y845312D01*
X1530184Y845566D01*
Y845566D01*
Y845566D01*
X1530209Y845820D01*
X1529900Y848956D01*
X1529826Y849200D01*
X1529801Y849454D01*
X1528886Y852470D01*
X1528766Y852695D01*
X1528692Y852939D01*
X1527206Y855719D01*
X1527044Y855916D01*
Y855916D01*
X1527044Y855916D01*
X1526924Y856141D01*
X1524924Y858577D01*
X1524727Y858739D01*
X1524565Y858936D01*
X1522129Y860936D01*
X1521904Y861056D01*
X1521904Y861056D01*
X1521904Y861056D01*
X1521707Y861218D01*
X1518927Y862704D01*
X1518683Y862778D01*
X1518458Y862898D01*
X1515442Y863813D01*
X1515188Y863838D01*
X1514944Y863912D01*
X1511808Y864221D01*
X1511680Y864208D01*
X1511554Y864233D01*
D02*
G37*
G36*
X1254940Y903984D02*
X1248704Y897747D01*
X1261771Y884680D01*
X1262611Y884118D01*
X1263603Y883921D01*
X1264594Y884118D01*
X1265434Y884680D01*
X1269839Y889085D01*
X1254940Y903984D01*
D02*
G37*
G36*
X1575030Y826430D02*
X1553960D01*
Y820200D01*
X1554157Y819209D01*
X1554719Y818369D01*
X1555559Y817807D01*
X1556550Y817610D01*
X1575030D01*
Y826430D01*
D02*
G37*
G36*
Y837790D02*
X1556550D01*
X1555559Y837593D01*
X1554719Y837031D01*
X1554157Y836191D01*
X1553960Y835200D01*
Y828970D01*
X1575030D01*
Y837790D01*
D02*
G37*
G36*
X1260400Y860927D02*
X1257779Y860582D01*
X1255337Y859570D01*
X1253239Y857961D01*
X1251630Y855863D01*
X1250618Y853421D01*
X1250273Y850800D01*
X1250618Y848179D01*
X1251630Y845737D01*
X1253239Y843639D01*
X1255337Y842030D01*
X1257779Y841018D01*
X1260400Y840673D01*
X1263021Y841018D01*
X1265463Y842030D01*
X1267561Y843639D01*
X1269170Y845737D01*
X1270182Y848179D01*
X1270527Y850800D01*
X1270182Y853421D01*
X1269170Y855863D01*
X1267561Y857961D01*
X1265463Y859570D01*
X1263021Y860582D01*
X1260400Y860927D01*
D02*
G37*
%LPD*%
D13*
X1254940Y905780D02*
D03*
X1294114Y944954D02*
D03*
X1545155Y694166D02*
D03*
X1505982Y654993D02*
D03*
D15*
X1374380Y977114D02*
D03*
X1429780D02*
D03*
Y622578D02*
D03*
X1374380D02*
D03*
D17*
X1505982Y944954D02*
D03*
X1545155Y905780D02*
D03*
X1294368Y654738D02*
D03*
X1255194Y693912D02*
D03*
D22*
X1576300Y827700D02*
D03*
Y772300D02*
D03*
D28*
X1185307Y627934D02*
G03*
X1182381Y599940I131885J-27934D01*
G01*
X1221866Y695326D02*
G03*
X1199881Y666424I95326J-95326D01*
G01*
X1179841Y599939D02*
X1317192Y600000D01*
X1200000Y717192D02*
X1223662Y693530D01*
X1182381Y599940D02*
X1187454Y615182D01*
X1177294Y615177D02*
X1182381Y599940D01*
X1207498Y688142D02*
X1221866Y695326D01*
X1214682Y680957D02*
X1221866Y695326D01*
X1600267Y1039726D02*
X1600269Y1034646D01*
X1200267Y1039582D02*
X1200269Y1034502D01*
X1585030Y1032101D02*
X1600268Y1037186D01*
X1585026Y1042261D02*
X1600268Y1037186D01*
X1200268Y1037042D02*
X1215510Y1031968D01*
X1200268Y1037042D02*
X1215506Y1042128D01*
X1499551Y1037150D02*
X1600268Y1037186D01*
X1200268Y1037042D02*
X1300985Y1037079D01*
X1482829Y581152D02*
Y586232D01*
X1317117Y581152D02*
Y586232D01*
X1482829Y583692D02*
X1498069Y578612D01*
X1482829Y583692D02*
X1498069Y588772D01*
X1301877Y578612D02*
X1317117Y583692D01*
X1301877Y588772D02*
X1317117Y583692D01*
X1482829D02*
X1508229D01*
X1291717D02*
X1317117D01*
X1630940Y600125D02*
X1636020Y600125D01*
X1630934Y1000125D02*
X1636014Y1000125D01*
X1628400Y615365D02*
X1633480Y600125D01*
X1638560Y615365D01*
X1628394Y984885D02*
X1633474Y1000125D01*
X1638554Y984885D01*
X1633479Y700842D02*
X1633480Y600125D01*
X1633474Y1000125D02*
X1633475Y899408D01*
D29*
X1200000Y717192D02*
Y882754D01*
X1317246Y1000000D01*
X1482898D01*
X1600000Y882898D01*
Y717096D02*
Y882898D01*
X1482904Y600000D02*
X1600000Y717096D01*
X1317192Y600000D02*
X1482904D01*
X1200000Y717192D02*
X1317192Y600000D01*
D30*
X1197300Y635613D02*
X1183223Y641440D01*
X1187348Y631488D01*
X1191232Y640872D01*
X1190021Y657863D02*
X1186136Y648478D01*
X1193175Y645565D01*
X1192771Y651228D01*
X1193742Y653574D01*
X1197059Y654949D01*
X1201752Y653007D01*
X1203127Y649689D01*
X1201184Y644997D01*
X1197867Y643622D01*
X1191959Y662557D02*
X1189613Y663528D01*
X1190584Y665874D01*
X1192930Y664903D01*
X1191959Y662557D01*
X1303528Y1027938D02*
X1308606Y1027940D01*
X1306067Y1027939D01*
X1306062Y1043174D01*
X1303523Y1040634D01*
X1326375Y1043181D02*
X1316218Y1043178D01*
X1316221Y1035560D01*
X1321299Y1038101D01*
X1323838Y1038102D01*
X1326378Y1035564D01*
X1326380Y1030485D01*
X1323841Y1027945D01*
X1318763Y1027943D01*
X1316223Y1030482D01*
X1331454Y1043183D02*
X1341610Y1043187D01*
X1341611Y1040648D01*
X1331458Y1030487D01*
X1331459Y1027948D01*
X1354312Y1027956D02*
X1354306Y1043191D01*
X1346691Y1035571D01*
X1356848Y1035575D01*
X1361929Y1027959D02*
X1361928Y1030498D01*
X1364467Y1030499D01*
X1364468Y1027960D01*
X1361929Y1027959D01*
X1374620Y1040659D02*
X1377159Y1043200D01*
X1382237Y1043201D01*
X1384777Y1040663D01*
X1384778Y1038124D01*
X1382240Y1035584D01*
X1384780Y1033046D01*
X1384781Y1030506D01*
X1382242Y1027966D01*
X1377164Y1027964D01*
X1374624Y1030503D01*
X1374623Y1033042D01*
X1377161Y1035582D01*
X1374621Y1038120D01*
X1374620Y1040659D01*
X1377161Y1035582D02*
X1382240Y1035584D01*
X1389855Y1040665D02*
X1392394Y1043205D01*
X1397472Y1043207D01*
X1400012Y1040669D01*
X1400016Y1030512D01*
X1397478Y1027972D01*
X1392399Y1027970D01*
X1389859Y1030508D01*
X1389855Y1040665D01*
X1405091Y1040670D02*
X1407629Y1043211D01*
X1412707Y1043212D01*
X1415247Y1040674D01*
X1415248Y1038135D01*
X1412710Y1035595D01*
X1410171Y1035594D01*
X1412710Y1035595D01*
X1415250Y1033057D01*
X1415251Y1030517D01*
X1412713Y1027977D01*
X1407634Y1027975D01*
X1405094Y1030514D01*
X1440644Y1027987D02*
X1435563Y1033064D01*
X1435562Y1038142D01*
X1440638Y1043222D01*
X1448261Y1027990D02*
X1448257Y1038147D01*
X1450797Y1038148D01*
X1453337Y1035610D01*
X1453340Y1027992D01*
X1453337Y1035610D01*
X1455875Y1038150D01*
X1458415Y1035611D01*
X1458418Y1027994D01*
X1463496Y1027996D02*
X1468575Y1027997D01*
X1466035Y1027997D01*
X1466032Y1038153D01*
X1463493Y1038152D01*
X1476192Y1028000D02*
X1481270Y1028002D01*
X1478731Y1028001D01*
X1478726Y1043236D01*
X1476187Y1043235D01*
X1488888Y1028005D02*
X1493965Y1033085D01*
X1493963Y1038163D01*
X1488882Y1043240D01*
X1319734Y562361D02*
X1314656Y559822D01*
X1309578Y554743D01*
Y549665D01*
X1312117Y547126D01*
X1317195D01*
X1319734Y549665D01*
Y552204D01*
X1317195Y554743D01*
X1309578D01*
X1334970Y562361D02*
X1324813D01*
Y554743D01*
X1329891Y557283D01*
X1332430D01*
X1334970Y554743D01*
Y549665D01*
X1332430Y547126D01*
X1327352D01*
X1324813Y549665D01*
X1350205Y547126D02*
X1340048D01*
X1350205Y557283D01*
Y559822D01*
X1347666Y562361D01*
X1342587D01*
X1340048Y559822D01*
X1355283Y547126D02*
Y549665D01*
X1357822D01*
Y547126D01*
X1355283D01*
X1375596D02*
Y562361D01*
X1367979Y554743D01*
X1378136D01*
X1383214Y559822D02*
X1385753Y562361D01*
X1390831D01*
X1393371Y559822D01*
Y549665D01*
X1390831Y547126D01*
X1385753D01*
X1383214Y549665D01*
Y559822D01*
X1398449Y549665D02*
X1400988Y547126D01*
X1406067D01*
X1408606Y549665D01*
Y559822D01*
X1406067Y562361D01*
X1400988D01*
X1398449Y559822D01*
Y557283D01*
X1400988Y554743D01*
X1408606D01*
X1433997Y547126D02*
X1428919Y552204D01*
Y557283D01*
X1433997Y562361D01*
X1441615Y547126D02*
Y557283D01*
X1444154D01*
X1446693Y554743D01*
Y547126D01*
Y554743D01*
X1449233Y557283D01*
X1451772Y554743D01*
Y547126D01*
X1456850D02*
X1461929D01*
X1459389D01*
Y557283D01*
X1456850D01*
X1469546Y547126D02*
X1474624D01*
X1472085D01*
Y562361D01*
X1469546D01*
X1482242Y547126D02*
X1487320Y552204D01*
Y557283D01*
X1482242Y562361D01*
X1624334Y896868D02*
X1624334Y891790D01*
X1624334Y894329D01*
X1639569Y894329D01*
X1637030Y896868D01*
X1639569Y874016D02*
X1639569Y884172D01*
X1631952Y884172D01*
X1634491Y879094D01*
X1634491Y876555D01*
X1631952Y874016D01*
X1626873Y874016D01*
X1624334Y876555D01*
X1624334Y881633D01*
X1626873Y884172D01*
X1639570Y868937D02*
X1639570Y858781D01*
X1637030Y858781D01*
X1626874Y868937D01*
X1624334Y868937D01*
X1624335Y846085D02*
X1639570Y846085D01*
X1631952Y853702D01*
X1631952Y843545D01*
X1624335Y838467D02*
X1626874Y838467D01*
X1626874Y835928D01*
X1624335Y835928D01*
X1624335Y838467D01*
X1637031Y825771D02*
X1639570Y823232D01*
X1639570Y818154D01*
X1637031Y815614D01*
X1634492Y815614D01*
X1631953Y818154D01*
X1629414Y815614D01*
X1626874Y815614D01*
X1624335Y818154D01*
X1624335Y823232D01*
X1626874Y825771D01*
X1629413Y825771D01*
X1631953Y823232D01*
X1634492Y825771D01*
X1637031Y825771D01*
X1631953Y823232D02*
X1631953Y818154D01*
X1637031Y810536D02*
X1639570Y807997D01*
X1639570Y802919D01*
X1637031Y800379D01*
X1626875Y800379D01*
X1624335Y802918D01*
X1624335Y807997D01*
X1626875Y810536D01*
X1637031Y810536D01*
X1637031Y795301D02*
X1639571Y792762D01*
X1639571Y787684D01*
X1637032Y785144D01*
X1634492Y785144D01*
X1631953Y787683D01*
X1631953Y790223D01*
X1631953Y787683D01*
X1629414Y785144D01*
X1626875Y785144D01*
X1624336Y787683D01*
X1624336Y792762D01*
X1626875Y795301D01*
X1624336Y759752D02*
X1629414Y764831D01*
X1634493Y764831D01*
X1639571Y759753D01*
X1624336Y752135D02*
X1634493Y752135D01*
X1634493Y749596D01*
X1631954Y747057D01*
X1624336Y747057D01*
X1631954Y747057D01*
X1634493Y744518D01*
X1631954Y741978D01*
X1624336Y741978D01*
X1624336Y736900D02*
X1624337Y731822D01*
X1624337Y734361D01*
X1634493Y734361D01*
X1634493Y736900D01*
X1624337Y724204D02*
X1624337Y719126D01*
X1624337Y721665D01*
X1639572Y721665D01*
X1639572Y724204D01*
X1624337Y711508D02*
X1629415Y706430D01*
X1634494Y706430D01*
X1639572Y711508D01*
D31*
X1355344Y913384D02*
D03*
Y686816D02*
D03*
X1511554Y845566D02*
D03*
Y754634D02*
D03*
D32*
X1260400Y749200D02*
D03*
X1235000D02*
D03*
X1260400Y774600D02*
D03*
X1235000D02*
D03*
X1260400Y800000D02*
D03*
X1235000D02*
D03*
X1260400Y825400D02*
D03*
X1235000D02*
D03*
X1260400Y850800D02*
D03*
D33*
X1235000D02*
D03*
D34*
X1349808Y732099D02*
D03*
X1349059Y754331D02*
D03*
X1357879Y840041D02*
D03*
X1355364Y874278D02*
D03*
X1347075Y876702D02*
D03*
X1363986Y833934D02*
D03*
X1366700Y735251D02*
D03*
X1360170Y818896D02*
D03*
X1335532Y792734D02*
D03*
X1344676Y783590D02*
D03*
X1355344Y773176D02*
D03*
X1360932Y785368D02*
D03*
X1282789Y894849D02*
D03*
X1315517Y867162D02*
D03*
X1321623Y861055D02*
D03*
X1314248Y903042D02*
D03*
X1345398Y851973D02*
D03*
X1368797Y863552D02*
D03*
X1362604Y869571D02*
D03*
X1328705Y856114D02*
D03*
X1304936Y917368D02*
D03*
X1326370Y890739D02*
D03*
X1376199Y821721D02*
D03*
X1309411Y873269D02*
D03*
X1303304Y879376D02*
D03*
X1296997Y885275D02*
D03*
X1389380Y845566D02*
D03*
X1351772Y846147D02*
D03*
X1381010Y851338D02*
D03*
X1338648Y878592D02*
D03*
X1370092Y827827D02*
D03*
X1383792Y816356D02*
D03*
X1290506Y890971D02*
D03*
X1336860Y853270D02*
D03*
X1320263Y896845D02*
D03*
X1374903Y857445D02*
D03*
X1308534Y909518D02*
D03*
X1332476Y884632D02*
D03*
X1302765Y751333D02*
D03*
Y823215D02*
D03*
X1302766Y787400D02*
D03*
X1495365Y721997D02*
D03*
X1477045Y740317D02*
D03*
X1493520Y683260D02*
D03*
X1460520Y722457D02*
D03*
X1416304Y753618D02*
D03*
X1515177Y705397D02*
D03*
X1441641Y763529D02*
D03*
X1470939Y746424D02*
D03*
X1440266Y737820D02*
D03*
X1426718Y776986D02*
D03*
X1472733Y710244D02*
D03*
X1508072Y710306D02*
D03*
X1432074Y740553D02*
D03*
X1489258Y728104D02*
D03*
X1454414Y728564D02*
D03*
X1457536Y757173D02*
D03*
X1490403Y691314D02*
D03*
X1478830Y704127D02*
D03*
X1448307Y734670D02*
D03*
X1424686Y745998D02*
D03*
X1434084Y770128D02*
D03*
X1466627Y716350D02*
D03*
X1484782Y697870D02*
D03*
X1483152Y734211D02*
D03*
X1449162Y759284D02*
D03*
X1464792Y752490D02*
D03*
X1501581Y716002D02*
D03*
X1385278Y950714D02*
D03*
X1388760Y942811D02*
D03*
X1389344Y934195D02*
D03*
X1389888Y925576D02*
D03*
Y916940D02*
D03*
Y908304D02*
D03*
Y899668D02*
D03*
Y891032D02*
D03*
Y882396D02*
D03*
Y873760D02*
D03*
Y865124D02*
D03*
Y856488D02*
D03*
X1414218Y856044D02*
D03*
Y864680D02*
D03*
Y873316D02*
D03*
Y881952D02*
D03*
Y890588D02*
D03*
Y899224D02*
D03*
Y907860D02*
D03*
Y916496D02*
D03*
Y925132D02*
D03*
X1414322Y933767D02*
D03*
X1414794Y942390D02*
D03*
X1417066Y950722D02*
D03*
X1496622Y920174D02*
D03*
X1493554Y912101D02*
D03*
X1487858Y905610D02*
D03*
X1482132Y899145D02*
D03*
X1476026Y893038D02*
D03*
X1469919Y886932D02*
D03*
X1463813Y880825D02*
D03*
X1457706Y874718D02*
D03*
X1451594Y868617D02*
D03*
X1443079Y867178D02*
D03*
X1435346Y863333D02*
D03*
X1429016Y857458D02*
D03*
X1422909Y851352D02*
D03*
X1415288Y845566D02*
D03*
X1427793Y821806D02*
D03*
X1433899Y827913D02*
D03*
X1440006Y834019D02*
D03*
X1446112Y840126D02*
D03*
X1453737Y844182D02*
D03*
X1462063Y846473D02*
D03*
X1469014Y851598D02*
D03*
X1475121Y857704D02*
D03*
X1481227Y863811D02*
D03*
X1487334Y869918D02*
D03*
X1493441Y876024D02*
D03*
X1499577Y882101D02*
D03*
X1505887Y887997D02*
D03*
X1512519Y893529D02*
D03*
X1520594Y896588D02*
D03*
X1389828Y744519D02*
D03*
Y735883D02*
D03*
Y727247D02*
D03*
Y718611D02*
D03*
Y709975D02*
D03*
Y701339D02*
D03*
Y692703D02*
D03*
Y684067D02*
D03*
Y675431D02*
D03*
X1389708Y666796D02*
D03*
X1389195Y658175D02*
D03*
X1386351Y650021D02*
D03*
X1417857Y649904D02*
D03*
X1415046Y658070D02*
D03*
X1414475Y666687D02*
D03*
X1414172Y675318D02*
D03*
Y683954D02*
D03*
Y692590D02*
D03*
Y701226D02*
D03*
Y709862D02*
D03*
Y718498D02*
D03*
Y727134D02*
D03*
Y735770D02*
D03*
Y744406D02*
D03*
X1375206Y776301D02*
D03*
X1369100Y770194D02*
D03*
X1362993Y764087D02*
D03*
X1356886Y757981D02*
D03*
X1340492Y753245D02*
D03*
X1332748Y749423D02*
D03*
X1326434Y743531D02*
D03*
X1320328Y737424D02*
D03*
X1314221Y731317D02*
D03*
X1308114Y725211D02*
D03*
X1302008Y719104D02*
D03*
X1295838Y713061D02*
D03*
X1289436Y707266D02*
D03*
X1281684Y702818D02*
D03*
X1304514Y680692D02*
D03*
X1307763Y688693D02*
D03*
X1313459Y695184D02*
D03*
X1319256Y701585D02*
D03*
X1325363Y707692D02*
D03*
X1331469Y713799D02*
D03*
X1337576Y719905D02*
D03*
X1343682Y726012D02*
D03*
X1358414Y732818D02*
D03*
X1373802Y740164D02*
D03*
X1379926Y746254D02*
D03*
X1388110Y753618D02*
D03*
X1550554Y816431D02*
D03*
X1542568Y813146D02*
D03*
X1533950Y812583D02*
D03*
X1525324Y812172D02*
D03*
X1516688D02*
D03*
X1508052D02*
D03*
X1499416D02*
D03*
X1490780D02*
D03*
X1482144D02*
D03*
X1473508D02*
D03*
X1464872D02*
D03*
X1456236D02*
D03*
X1447600D02*
D03*
X1438964D02*
D03*
X1430328D02*
D03*
X1421692D02*
D03*
X1413215Y810524D02*
D03*
X1413205Y789483D02*
D03*
X1421683Y787839D02*
D03*
X1430319D02*
D03*
X1438955D02*
D03*
X1447591D02*
D03*
X1456227D02*
D03*
X1464863D02*
D03*
X1473499D02*
D03*
X1482135D02*
D03*
X1490771D02*
D03*
X1499407D02*
D03*
X1508043D02*
D03*
X1516679D02*
D03*
X1525315Y787822D02*
D03*
X1533948Y787602D02*
D03*
X1550446Y783418D02*
D03*
X1542559Y786935D02*
D03*
D35*
X1401953Y801878D02*
D03*
Y798068D02*
D03*
X1398143Y801878D02*
D03*
Y798068D02*
D03*
M02*
