G04 Layer_Color=16711935*
%FSLAX44Y44*%
%MOMM*%
G71*
G01*
G75*
%ADD27C,0.3048*%
%ADD28C,0.2540*%
%ADD29C,0.1270*%
%ADD30C,0.1524*%
D27*
X1200000Y717192D02*
Y882754D01*
Y717192D02*
X1317192Y600000D01*
X1482904D01*
X1200000Y882754D02*
X1317246Y1000000D01*
X1482898D01*
X1600000Y717096D02*
Y882898D01*
X1482898Y1000000D02*
X1600000Y882898D01*
X1482904Y600000D02*
X1600000Y717096D01*
D28*
X1185307Y627934D02*
G03*
X1182381Y599940I131885J-27934D01*
G01*
X1221866Y695326D02*
G03*
X1199881Y666424I95326J-95326D01*
G01*
X1179841Y599939D02*
X1313128Y599998D01*
X1202874Y714318D02*
X1223662Y693530D01*
X1182381Y599940D02*
X1187454Y615182D01*
X1177294Y615177D02*
X1182381Y599940D01*
X1207498Y688142D02*
X1221866Y695326D01*
X1214682Y680957D02*
X1221866Y695326D01*
X1600283Y1039709D02*
X1600284Y1034629D01*
X1200283Y1039565D02*
X1200284Y1034485D01*
X1585045Y1032084D02*
X1600284Y1037169D01*
X1585042Y1042243D02*
X1600284Y1037169D01*
X1200284Y1037025D02*
X1215525Y1031951D01*
X1200284Y1037025D02*
X1215522Y1042111D01*
X1499567Y1037133D02*
X1600284Y1037169D01*
X1200284Y1037025D02*
X1301000Y1037061D01*
X1630935Y600115D02*
X1636015Y600115D01*
X1630929Y1000115D02*
X1636009Y1000115D01*
X1628395Y615355D02*
X1633475Y600115D01*
X1638555Y615355D01*
X1628389Y984875D02*
X1633469Y1000115D01*
X1638549Y984875D01*
X1633474Y700832D02*
X1633475Y600115D01*
X1633469Y1000115D02*
X1633471Y899398D01*
X1482880Y581142D02*
Y586222D01*
X1317168Y581142D02*
Y586222D01*
X1482880Y583682D02*
X1498120Y578602D01*
X1482880Y583682D02*
X1498120Y588762D01*
X1301928Y578602D02*
X1317168Y583682D01*
X1301928Y588762D02*
X1317168Y583682D01*
X1482880D02*
X1508280D01*
X1291768D02*
X1317168D01*
X1185307Y627934D02*
G03*
X1182381Y599940I131885J-27934D01*
G01*
X1221866Y695326D02*
G03*
X1199881Y666424I95326J-95326D01*
G01*
X1179841Y599939D02*
X1317192Y600000D01*
X1200000Y717192D02*
X1223662Y693530D01*
X1182381Y599940D02*
X1187454Y615182D01*
X1177294Y615177D02*
X1182381Y599940D01*
X1207498Y688142D02*
X1221866Y695326D01*
X1214682Y680957D02*
X1221866Y695326D01*
X1600267Y1039726D02*
X1600269Y1034646D01*
X1200267Y1039582D02*
X1200269Y1034502D01*
X1585030Y1032101D02*
X1600268Y1037186D01*
X1585026Y1042261D02*
X1600268Y1037186D01*
X1200268Y1037042D02*
X1215510Y1031968D01*
X1200268Y1037042D02*
X1215506Y1042128D01*
X1499551Y1037150D02*
X1600268Y1037186D01*
X1200268Y1037042D02*
X1300985Y1037079D01*
X1482829Y581152D02*
Y586232D01*
X1317117Y581152D02*
Y586232D01*
X1482829Y583692D02*
X1498069Y578612D01*
X1482829Y583692D02*
X1498069Y588772D01*
X1301877Y578612D02*
X1317117Y583692D01*
X1301877Y588772D02*
X1317117Y583692D01*
X1482829D02*
X1508229D01*
X1291717D02*
X1317117D01*
X1630940Y600125D02*
X1636020Y600125D01*
X1630934Y1000125D02*
X1636014Y1000125D01*
X1628400Y615365D02*
X1633480Y600125D01*
X1638560Y615365D01*
X1628394Y984885D02*
X1633474Y1000125D01*
X1638554Y984885D01*
X1633479Y700842D02*
X1633480Y600125D01*
X1633474Y1000125D02*
X1633475Y899408D01*
D29*
X1200000Y717192D02*
Y882754D01*
X1317246Y1000000D01*
X1482898D01*
X1600000Y882898D01*
Y717096D02*
Y882898D01*
X1482904Y600000D02*
X1600000Y717096D01*
X1317192Y600000D02*
X1482904D01*
X1200000Y717192D02*
X1317192Y600000D01*
D30*
X1197300Y635613D02*
X1183223Y641440D01*
X1187348Y631488D01*
X1191232Y640872D01*
X1190021Y657863D02*
X1186136Y648478D01*
X1193175Y645565D01*
X1192771Y651228D01*
X1193742Y653574D01*
X1197059Y654949D01*
X1201752Y653007D01*
X1203127Y649689D01*
X1201184Y644997D01*
X1197867Y643622D01*
X1191959Y662557D02*
X1189613Y663528D01*
X1190584Y665874D01*
X1192930Y664903D01*
X1191959Y662557D01*
X1303544Y1027921D02*
X1308622Y1027923D01*
X1306083Y1027922D01*
X1306077Y1043157D01*
X1303539Y1040617D01*
X1326391Y1043164D02*
X1316234Y1043160D01*
X1316237Y1035543D01*
X1321314Y1038084D01*
X1323853Y1038085D01*
X1326393Y1035546D01*
X1326395Y1030468D01*
X1323857Y1027928D01*
X1318779Y1027926D01*
X1316239Y1030464D01*
X1331469Y1043166D02*
X1341626Y1043169D01*
X1341627Y1040630D01*
X1331474Y1030470D01*
X1331475Y1027931D01*
X1354327Y1027939D02*
X1354322Y1043174D01*
X1346707Y1035554D01*
X1356864Y1035557D01*
X1361945Y1027942D02*
X1361944Y1030481D01*
X1364483Y1030482D01*
X1364484Y1027943D01*
X1361945Y1027942D01*
X1374636Y1040642D02*
X1377174Y1043182D01*
X1382253Y1043184D01*
X1384793Y1040646D01*
X1384794Y1038107D01*
X1382255Y1035566D01*
X1384796Y1033028D01*
X1384796Y1030489D01*
X1382258Y1027949D01*
X1377180Y1027947D01*
X1374640Y1030485D01*
X1374639Y1033025D01*
X1377177Y1035565D01*
X1374637Y1038103D01*
X1374636Y1040642D01*
X1377177Y1035565D02*
X1382255Y1035566D01*
X1389871Y1040648D02*
X1392409Y1043188D01*
X1397488Y1043189D01*
X1400028Y1040651D01*
X1400031Y1030495D01*
X1397493Y1027954D01*
X1392415Y1027953D01*
X1389875Y1030491D01*
X1389871Y1040648D01*
X1405106Y1040653D02*
X1407645Y1043193D01*
X1412723Y1043195D01*
X1415263Y1040657D01*
X1415264Y1038118D01*
X1412726Y1035577D01*
X1410186Y1035577D01*
X1412726Y1035577D01*
X1415266Y1033039D01*
X1415267Y1030500D01*
X1412728Y1027960D01*
X1407650Y1027958D01*
X1405110Y1030496D01*
X1440659Y1027970D02*
X1435579Y1033046D01*
X1435577Y1038125D01*
X1440654Y1043205D01*
X1448277Y1027973D02*
X1448273Y1038130D01*
X1450812Y1038130D01*
X1453352Y1035592D01*
X1453355Y1027975D01*
X1453352Y1035592D01*
X1455891Y1038132D01*
X1458431Y1035594D01*
X1458434Y1027976D01*
X1463512Y1027978D02*
X1468590Y1027980D01*
X1466051Y1027979D01*
X1466047Y1038136D01*
X1463508Y1038135D01*
X1476208Y1027983D02*
X1481286Y1027985D01*
X1478747Y1027984D01*
X1478741Y1043219D01*
X1476202Y1043218D01*
X1488904Y1027987D02*
X1493980Y1033067D01*
X1493978Y1038146D01*
X1488898Y1043222D01*
X1624329Y896858D02*
X1624329Y891780D01*
X1624329Y894319D01*
X1639564Y894319D01*
X1637025Y896859D01*
X1639565Y874006D02*
X1639565Y884163D01*
X1631947Y884163D01*
X1634486Y879084D01*
X1634486Y876545D01*
X1631947Y874006D01*
X1626869Y874006D01*
X1624330Y876545D01*
X1624330Y881623D01*
X1626869Y884163D01*
X1639565Y868928D02*
X1639565Y858771D01*
X1637026Y858771D01*
X1626869Y868927D01*
X1624330Y868927D01*
X1624330Y846075D02*
X1639565Y846075D01*
X1631947Y853692D01*
X1631948Y843536D01*
X1624330Y838457D02*
X1626869Y838457D01*
X1626869Y835918D01*
X1624330Y835918D01*
X1624330Y838457D01*
X1637026Y825762D02*
X1639565Y823222D01*
X1639565Y818144D01*
X1637026Y815605D01*
X1634487Y815605D01*
X1631948Y818144D01*
X1629409Y815605D01*
X1626870Y815605D01*
X1624330Y818144D01*
X1624330Y823222D01*
X1626870Y825761D01*
X1629409Y825761D01*
X1631948Y823222D01*
X1634487Y825761D01*
X1637026Y825762D01*
X1631948Y823222D02*
X1631948Y818144D01*
X1637027Y810527D02*
X1639566Y807987D01*
X1639566Y802909D01*
X1637027Y800370D01*
X1626870Y800370D01*
X1624331Y802909D01*
X1624331Y807987D01*
X1626870Y810526D01*
X1637027Y810527D01*
X1637027Y795291D02*
X1639566Y792752D01*
X1639566Y787674D01*
X1637027Y785135D01*
X1634488Y785135D01*
X1631949Y787674D01*
X1631948Y790213D01*
X1631949Y787674D01*
X1629409Y785135D01*
X1626870Y785135D01*
X1624331Y787674D01*
X1624331Y792752D01*
X1626870Y795291D01*
X1624331Y759743D02*
X1629410Y764821D01*
X1634488Y764821D01*
X1639566Y759743D01*
X1624331Y752125D02*
X1634488Y752125D01*
X1634488Y749586D01*
X1631949Y747047D01*
X1624332Y747047D01*
X1631949Y747047D01*
X1634488Y744508D01*
X1631949Y741969D01*
X1624332Y741969D01*
X1624332Y736890D02*
X1624332Y731812D01*
X1624332Y734351D01*
X1634489Y734351D01*
X1634488Y736890D01*
X1624332Y724194D02*
X1624332Y719116D01*
X1624332Y721655D01*
X1639567Y721655D01*
X1639567Y724194D01*
X1624332Y711498D02*
X1629411Y706420D01*
X1634489Y706420D01*
X1639567Y711499D01*
X1319786Y562351D02*
X1314707Y559812D01*
X1309629Y554734D01*
Y549655D01*
X1312168Y547116D01*
X1317247D01*
X1319786Y549655D01*
Y552194D01*
X1317247Y554734D01*
X1309629D01*
X1335021Y562351D02*
X1324864D01*
Y554734D01*
X1329942Y557273D01*
X1332482D01*
X1335021Y554734D01*
Y549655D01*
X1332482Y547116D01*
X1327403D01*
X1324864Y549655D01*
X1350256Y547116D02*
X1340099D01*
X1350256Y557273D01*
Y559812D01*
X1347717Y562351D01*
X1342638D01*
X1340099Y559812D01*
X1355334Y547116D02*
Y549655D01*
X1357873D01*
Y547116D01*
X1355334D01*
X1375648D02*
Y562351D01*
X1368030Y554734D01*
X1378187D01*
X1383265Y559812D02*
X1385804Y562351D01*
X1390883D01*
X1393422Y559812D01*
Y549655D01*
X1390883Y547116D01*
X1385804D01*
X1383265Y549655D01*
Y559812D01*
X1398500Y549655D02*
X1401039Y547116D01*
X1406118D01*
X1408657Y549655D01*
Y559812D01*
X1406118Y562351D01*
X1401039D01*
X1398500Y559812D01*
Y557273D01*
X1401039Y554734D01*
X1408657D01*
X1434049Y547116D02*
X1428970Y552194D01*
Y557273D01*
X1434049Y562351D01*
X1441666Y547116D02*
Y557273D01*
X1444205D01*
X1446745Y554734D01*
Y547116D01*
Y554734D01*
X1449284Y557273D01*
X1451823Y554734D01*
Y547116D01*
X1456901D02*
X1461980D01*
X1459440D01*
Y557273D01*
X1456901D01*
X1469597Y547116D02*
X1474675D01*
X1472136D01*
Y562351D01*
X1469597D01*
X1482293Y547116D02*
X1487371Y552194D01*
Y557273D01*
X1482293Y562351D01*
X1197300Y635613D02*
X1183223Y641440D01*
X1187348Y631488D01*
X1191232Y640872D01*
X1190021Y657863D02*
X1186136Y648478D01*
X1193175Y645565D01*
X1192771Y651228D01*
X1193742Y653574D01*
X1197059Y654949D01*
X1201752Y653007D01*
X1203127Y649689D01*
X1201184Y644997D01*
X1197867Y643622D01*
X1191959Y662557D02*
X1189613Y663528D01*
X1190584Y665874D01*
X1192930Y664903D01*
X1191959Y662557D01*
X1303528Y1027938D02*
X1308606Y1027940D01*
X1306067Y1027939D01*
X1306062Y1043174D01*
X1303523Y1040634D01*
X1326375Y1043181D02*
X1316218Y1043178D01*
X1316221Y1035560D01*
X1321299Y1038101D01*
X1323838Y1038102D01*
X1326378Y1035564D01*
X1326380Y1030485D01*
X1323841Y1027945D01*
X1318763Y1027943D01*
X1316223Y1030482D01*
X1331454Y1043183D02*
X1341610Y1043187D01*
X1341611Y1040648D01*
X1331458Y1030487D01*
X1331459Y1027948D01*
X1354312Y1027956D02*
X1354306Y1043191D01*
X1346691Y1035571D01*
X1356848Y1035575D01*
X1361929Y1027959D02*
X1361928Y1030498D01*
X1364467Y1030499D01*
X1364468Y1027960D01*
X1361929Y1027959D01*
X1374620Y1040659D02*
X1377159Y1043200D01*
X1382237Y1043201D01*
X1384777Y1040663D01*
X1384778Y1038124D01*
X1382240Y1035584D01*
X1384780Y1033046D01*
X1384781Y1030506D01*
X1382242Y1027966D01*
X1377164Y1027964D01*
X1374624Y1030503D01*
X1374623Y1033042D01*
X1377161Y1035582D01*
X1374621Y1038120D01*
X1374620Y1040659D01*
X1377161Y1035582D02*
X1382240Y1035584D01*
X1389855Y1040665D02*
X1392394Y1043205D01*
X1397472Y1043207D01*
X1400012Y1040669D01*
X1400016Y1030512D01*
X1397478Y1027972D01*
X1392399Y1027970D01*
X1389859Y1030508D01*
X1389855Y1040665D01*
X1405091Y1040670D02*
X1407629Y1043211D01*
X1412707Y1043212D01*
X1415247Y1040674D01*
X1415248Y1038135D01*
X1412710Y1035595D01*
X1410171Y1035594D01*
X1412710Y1035595D01*
X1415250Y1033057D01*
X1415251Y1030517D01*
X1412713Y1027977D01*
X1407634Y1027975D01*
X1405094Y1030514D01*
X1440644Y1027987D02*
X1435563Y1033064D01*
X1435562Y1038142D01*
X1440638Y1043222D01*
X1448261Y1027990D02*
X1448257Y1038147D01*
X1450797Y1038148D01*
X1453337Y1035610D01*
X1453340Y1027992D01*
X1453337Y1035610D01*
X1455875Y1038150D01*
X1458415Y1035611D01*
X1458418Y1027994D01*
X1463496Y1027996D02*
X1468575Y1027997D01*
X1466035Y1027997D01*
X1466032Y1038153D01*
X1463493Y1038152D01*
X1476192Y1028000D02*
X1481270Y1028002D01*
X1478731Y1028001D01*
X1478726Y1043236D01*
X1476187Y1043235D01*
X1488888Y1028005D02*
X1493965Y1033085D01*
X1493963Y1038163D01*
X1488882Y1043240D01*
X1319734Y562361D02*
X1314656Y559822D01*
X1309578Y554743D01*
Y549665D01*
X1312117Y547126D01*
X1317195D01*
X1319734Y549665D01*
Y552204D01*
X1317195Y554743D01*
X1309578D01*
X1334970Y562361D02*
X1324813D01*
Y554743D01*
X1329891Y557283D01*
X1332430D01*
X1334970Y554743D01*
Y549665D01*
X1332430Y547126D01*
X1327352D01*
X1324813Y549665D01*
X1350205Y547126D02*
X1340048D01*
X1350205Y557283D01*
Y559822D01*
X1347666Y562361D01*
X1342587D01*
X1340048Y559822D01*
X1355283Y547126D02*
Y549665D01*
X1357822D01*
Y547126D01*
X1355283D01*
X1375596D02*
Y562361D01*
X1367979Y554743D01*
X1378136D01*
X1383214Y559822D02*
X1385753Y562361D01*
X1390831D01*
X1393371Y559822D01*
Y549665D01*
X1390831Y547126D01*
X1385753D01*
X1383214Y549665D01*
Y559822D01*
X1398449Y549665D02*
X1400988Y547126D01*
X1406067D01*
X1408606Y549665D01*
Y559822D01*
X1406067Y562361D01*
X1400988D01*
X1398449Y559822D01*
Y557283D01*
X1400988Y554743D01*
X1408606D01*
X1433997Y547126D02*
X1428919Y552204D01*
Y557283D01*
X1433997Y562361D01*
X1441615Y547126D02*
Y557283D01*
X1444154D01*
X1446693Y554743D01*
Y547126D01*
Y554743D01*
X1449233Y557283D01*
X1451772Y554743D01*
Y547126D01*
X1456850D02*
X1461929D01*
X1459389D01*
Y557283D01*
X1456850D01*
X1469546Y547126D02*
X1474624D01*
X1472085D01*
Y562361D01*
X1469546D01*
X1482242Y547126D02*
X1487320Y552204D01*
Y557283D01*
X1482242Y562361D01*
X1624334Y896868D02*
X1624334Y891790D01*
X1624334Y894329D01*
X1639569Y894329D01*
X1637030Y896868D01*
X1639569Y874016D02*
X1639569Y884172D01*
X1631952Y884172D01*
X1634491Y879094D01*
X1634491Y876555D01*
X1631952Y874016D01*
X1626873Y874016D01*
X1624334Y876555D01*
X1624334Y881633D01*
X1626873Y884172D01*
X1639570Y868937D02*
X1639570Y858781D01*
X1637030Y858781D01*
X1626874Y868937D01*
X1624334Y868937D01*
X1624335Y846085D02*
X1639570Y846085D01*
X1631952Y853702D01*
X1631952Y843545D01*
X1624335Y838467D02*
X1626874Y838467D01*
X1626874Y835928D01*
X1624335Y835928D01*
X1624335Y838467D01*
X1637031Y825771D02*
X1639570Y823232D01*
X1639570Y818154D01*
X1637031Y815614D01*
X1634492Y815614D01*
X1631953Y818154D01*
X1629414Y815614D01*
X1626874Y815614D01*
X1624335Y818154D01*
X1624335Y823232D01*
X1626874Y825771D01*
X1629413Y825771D01*
X1631953Y823232D01*
X1634492Y825771D01*
X1637031Y825771D01*
X1631953Y823232D02*
X1631953Y818154D01*
X1637031Y810536D02*
X1639570Y807997D01*
X1639570Y802919D01*
X1637031Y800379D01*
X1626875Y800379D01*
X1624335Y802918D01*
X1624335Y807997D01*
X1626875Y810536D01*
X1637031Y810536D01*
X1637031Y795301D02*
X1639571Y792762D01*
X1639571Y787684D01*
X1637032Y785144D01*
X1634492Y785144D01*
X1631953Y787683D01*
X1631953Y790223D01*
X1631953Y787683D01*
X1629414Y785144D01*
X1626875Y785144D01*
X1624336Y787683D01*
X1624336Y792762D01*
X1626875Y795301D01*
X1624336Y759752D02*
X1629414Y764831D01*
X1634493Y764831D01*
X1639571Y759753D01*
X1624336Y752135D02*
X1634493Y752135D01*
X1634493Y749596D01*
X1631954Y747057D01*
X1624336Y747057D01*
X1631954Y747057D01*
X1634493Y744518D01*
X1631954Y741978D01*
X1624336Y741978D01*
X1624336Y736900D02*
X1624337Y731822D01*
X1624337Y734361D01*
X1634493Y734361D01*
X1634493Y736900D01*
X1624337Y724204D02*
X1624337Y719126D01*
X1624337Y721665D01*
X1639572Y721665D01*
X1639572Y724204D01*
X1624337Y711508D02*
X1629415Y706430D01*
X1634494Y706430D01*
X1639572Y711508D01*
M02*
