M48
;Layer_Color=9474304
;FILE_FORMAT=4:4
METRIC,LZ
;TYPE=PLATED
T1F00S00C0.1524
T2F00S00C0.2540
T3F00S00C0.3048
T4F00S00C0.9000
%
T01
X01398143Y00798068
X01401953
Y00801878
X01398143
T02
X01281684Y00702818
X01289436Y00707266
X01295838Y00713061
X01302008Y00719104
X01308114Y00725211
X01314221Y00731317
X01320328Y00737424
X01326434Y00743531
X01332748Y00749423
X01340492Y00753245
X01349059Y00754331
X01356886Y00757981
X01362993Y00764087
X013691Y00770194
X01375206Y00776301
X01379926Y00746254
X01389828Y00744519
Y00735883
Y00727247
Y00718611
Y00709975
Y00701339
Y00692703
Y00684067
Y00675431
X01389708Y00666796
X01389195Y00658175
X01386351Y00650021
X01417857Y00649904
X01415046Y0065807
X01414475Y00666687
X01414172Y00675318
Y00683954
Y0069259
Y00701226
Y00709862
Y00718498
Y00727134
Y0073577
Y00744406
X01416304Y00753618
X01424686Y00745998
X01432074Y00740553
X01440266Y0073782
X01448307Y0073467
X01454414Y00728564
X0146052Y00722457
X01466627Y0071635
X01472733Y00710244
X0147883Y00704127
X01484782Y0069787
X01490403Y00691314
X0149352Y0068326
X01495365Y00721997
X01501581Y00716002
X01508072Y00710306
X01515177Y00705397
X01489258Y00728104
X01483152Y00734211
X01477045Y00740317
X01470939Y00746424
X01464792Y0075249
X01457536Y00757173
X01449162Y00759284
X01441641Y00763529
X01434084Y00770128
X01426718Y00776986
X01430319Y00787839
X01421683
X01413205Y00789483
X01438955Y00787839
X01447591
X01456227
X01464863
X01473499
X01482135
X01490771
X01499407
X01508043
X01516679
X01525315Y00787822
X01533948Y00787602
X01542559Y00786935
X01550446Y00783418
X0138811Y00753618
X01373802Y00740164
X013667Y00735251
X01358414Y00732818
X01349808Y00732099
X01343682Y00726012
X01337576Y00719905
X01331469Y00713799
X01325363Y00707692
X01319256Y00701585
X01313459Y00695184
X01307763Y00688693
X01304514Y00680692
X01321623Y00861055
X01328705Y00856114
X0133686Y0085327
X01345398Y00851973
X01351772Y00846147
X01357879Y00840041
X01363986Y00833934
X01370092Y00827827
X01376199Y00821721
X01383792Y00816356
X0138938Y00845566
X01389888Y00856488
Y00865124
Y0087376
Y00882396
Y00891032
Y00899668
Y00908304
Y0091694
Y00925576
X01389344Y00934195
X0138876Y00942811
X01385278Y00950714
X01417066Y00950722
X01414794Y0094239
X01414322Y00933767
X01414218Y00925132
Y00916496
Y0090786
Y00899224
Y00890588
Y00881952
Y00873316
Y0086468
Y00856044
X01415288Y00845566
X01422909Y00851352
X01429016Y00857458
X01435346Y00863333
X01443079Y00867178
X01451594Y00868617
X01457706Y00874718
X01463813Y00880825
X01469919Y00886932
X01476026Y00893038
X01482132Y00899145
X01487858Y0090561
X01493554Y00912101
X01496622Y00920174
X01499577Y00882101
X01505887Y00887997
X01512519Y00893529
X01520594Y00896588
X01493441Y00876024
X01487334Y00869918
X01481227Y00863811
X01475121Y00857704
X01469014Y00851598
X01462063Y00846473
X01453737Y00844182
X01446112Y00840126
X01440006Y00834019
X01433899Y00827913
X01427793Y00821806
X01430328Y00812172
X01438964
X014476
X01456236
X01464872
X01473508
X01482144
X0149078
X01499416
X01508052
X01516688
X01525324
X0153395Y00812583
X01542568Y00813146
X01550554Y00816431
X01421692Y00812172
X01413215Y00810524
X0138101Y00851338
X01374903Y00857445
X01368797Y00863552
X01362604Y00869571
X01355364Y00874278
X01347075Y00876702
X01338648Y00878592
X01332476Y00884632
X0132637Y00890739
X01320263Y00896845
X01314248Y00903042
X01308534Y00909518
X01304936Y00917368
X01303304Y00879376
X01296997Y00885275
X01290506Y00890971
X01282789Y00894849
X01309411Y00873269
X01315517Y00867162
T03
X01302765Y00751333
X01302766Y007874
X01335532Y00792734
X01344676Y0078359
X01360932Y00785368
X01355344Y00773176
X0136017Y00818896
X01302765Y00823215
T04
X01235Y007492
X012604
Y007746
X01235
Y008
X012604
Y008254
X01235
Y008508
X012604
M30
