G04 Layer_Physical_Order=1*
G04 Layer_Color=255*
%FSLAX44Y44*%
%MOMM*%
G71*
G01*
G75*
%ADD10C,0.5283*%
%ADD11C,0.1930*%
%ADD12C,1.0000*%
G04:AMPARAMS|DCode=13|XSize=3.95mm|YSize=1.5mm|CornerRadius=0mm|HoleSize=0mm|Usage=FLASHONLY|Rotation=315.000|XOffset=0mm|YOffset=0mm|HoleType=Round|Shape=Rectangle|*
%AMROTATEDRECTD13*
4,1,4,-1.9269,0.8662,-0.8662,1.9269,1.9269,-0.8662,0.8662,-1.9269,-1.9269,0.8662,0.0*
%
%ADD13ROTATEDRECTD13*%

G04:AMPARAMS|DCode=14|XSize=4.25mm|YSize=1.5mm|CornerRadius=0mm|HoleSize=0mm|Usage=FLASHONLY|Rotation=315.000|XOffset=0mm|YOffset=0mm|HoleType=Round|Shape=Rectangle|*
%AMROTATEDRECTD14*
4,1,4,-2.0329,0.9723,-0.9723,2.0329,2.0329,-0.9723,0.9723,-2.0329,-2.0329,0.9723,0.0*
%
%ADD14ROTATEDRECTD14*%

%ADD15R,1.5000X3.9500*%
%ADD16R,1.5000X4.2500*%
G04:AMPARAMS|DCode=17|XSize=3.95mm|YSize=1.5mm|CornerRadius=0mm|HoleSize=0mm|Usage=FLASHONLY|Rotation=225.000|XOffset=0mm|YOffset=0mm|HoleType=Round|Shape=Rectangle|*
%AMROTATEDRECTD17*
4,1,4,0.8662,1.9269,1.9269,0.8662,-0.8662,-1.9269,-1.9269,-0.8662,0.8662,1.9269,0.0*
%
%ADD17ROTATEDRECTD17*%

G04:AMPARAMS|DCode=18|XSize=4.25mm|YSize=1.5mm|CornerRadius=0mm|HoleSize=0mm|Usage=FLASHONLY|Rotation=225.000|XOffset=0mm|YOffset=0mm|HoleType=Round|Shape=Rectangle|*
%AMROTATEDRECTD18*
4,1,4,0.9723,2.0329,2.0329,0.9723,-0.9723,-2.0329,-2.0329,-0.9723,0.9723,2.0329,0.0*
%
%ADD18ROTATEDRECTD18*%

%ADD19R,0.6000X0.5500*%
%ADD20P,0.7778X4X180.0*%
%ADD21P,0.7778X4X270.0*%
%ADD22R,3.9500X1.5000*%
%ADD23R,4.2500X1.5000*%
%ADD24R,0.6500X0.2000*%
%ADD25R,0.2000X0.6500*%
%ADD26R,1.0300X1.0300*%
%ADD27C,0.3048*%
%ADD28C,0.2540*%
%ADD29C,0.1270*%
%ADD30C,0.1524*%
%ADD31C,3.2000*%
%ADD32C,1.5000*%
%ADD33R,1.5000X1.5000*%
%ADD34C,0.5588*%
%ADD35C,0.3556*%
G36*
X1397175Y779352D02*
X1396962Y779123D01*
X1396767Y778879D01*
X1396589Y778620D01*
X1396427Y778344D01*
X1396281Y778053D01*
X1396153Y777746D01*
X1396041Y777424D01*
X1395946Y777085D01*
X1395867Y776731D01*
X1395806Y776362D01*
X1392820Y779348D01*
X1393190Y779409D01*
X1393544Y779488D01*
X1393882Y779583D01*
X1394204Y779695D01*
X1394511Y779823D01*
X1394802Y779969D01*
X1395078Y780131D01*
X1395337Y780309D01*
X1395581Y780505D01*
X1395809Y780716D01*
X1397175Y779352D01*
D02*
G37*
G36*
X1402977Y782783D02*
X1403010Y782395D01*
X1403067Y782019D01*
X1403146Y781653D01*
X1403247Y781298D01*
X1403371Y780955D01*
X1403518Y780623D01*
X1403687Y780302D01*
X1403879Y779992D01*
X1404093Y779693D01*
X1399907D01*
X1400121Y779992D01*
X1400313Y780302D01*
X1400482Y780623D01*
X1400629Y780955D01*
X1400753Y781298D01*
X1400854Y781653D01*
X1400933Y782019D01*
X1400990Y782395D01*
X1401024Y782783D01*
X1401035Y783183D01*
X1402965D01*
X1402977Y782783D01*
D02*
G37*
G36*
X1553583Y792533D02*
X1553266Y793450D01*
X1552315Y794270D01*
X1550730Y794994D01*
X1548511Y795621D01*
X1545658Y796152D01*
X1542171Y796586D01*
X1533295Y797165D01*
X1521884Y797358D01*
Y802642D01*
X1527907Y802690D01*
X1545658Y803848D01*
X1548511Y804379D01*
X1550730Y805006D01*
X1552315Y805730D01*
X1553266Y806550D01*
X1553583Y807467D01*
Y792533D01*
D02*
G37*
G36*
X1408854Y780483D02*
X1409117Y780268D01*
X1409394Y780073D01*
X1409684Y779896D01*
X1409986Y779739D01*
X1410303Y779600D01*
X1410632Y779481D01*
X1410975Y779381D01*
X1411331Y779300D01*
X1411700Y779238D01*
X1408718Y776256D01*
X1408656Y776625D01*
X1408575Y776981D01*
X1408475Y777324D01*
X1408356Y777653D01*
X1408217Y777970D01*
X1408060Y778272D01*
X1407883Y778562D01*
X1407688Y778839D01*
X1407473Y779102D01*
X1407240Y779352D01*
X1408604Y780716D01*
X1408854Y780483D01*
D02*
G37*
G36*
X1404691Y670971D02*
X1405868Y653220D01*
X1406407Y650367D01*
X1407045Y648148D01*
X1407781Y646563D01*
X1408615Y645612D01*
X1409547Y645295D01*
X1394613D01*
X1395515Y645612D01*
X1396321Y646563D01*
X1397033Y648148D01*
X1397650Y650367D01*
X1398172Y653220D01*
X1398599Y656707D01*
X1399169Y665583D01*
X1399358Y676994D01*
X1404642D01*
X1404691Y670971D01*
D02*
G37*
G36*
X1493251Y710701D02*
X1506623Y698967D01*
X1509015Y697325D01*
X1511028Y696200D01*
X1512660Y695591D01*
X1513913Y695499D01*
X1514785Y695923D01*
X1504225Y685363D01*
X1504650Y686235D01*
X1504557Y687488D01*
X1503948Y689120D01*
X1502823Y691133D01*
X1501181Y693525D01*
X1499022Y696298D01*
X1493156Y702984D01*
X1485223Y711189D01*
X1488958Y714925D01*
X1493251Y710701D01*
D02*
G37*
G36*
X1315127Y710936D02*
X1310903Y706643D01*
X1299169Y693271D01*
X1297527Y690879D01*
X1296402Y688866D01*
X1295793Y687234D01*
X1295701Y685981D01*
X1296125Y685109D01*
X1285565Y695669D01*
X1286437Y695245D01*
X1287690Y695337D01*
X1289322Y695946D01*
X1291335Y697071D01*
X1293727Y698713D01*
X1296500Y700872D01*
X1303186Y706739D01*
X1311391Y714671D01*
X1315127Y710936D01*
D02*
G37*
G36*
X1295446Y913711D02*
X1295539Y912458D01*
X1296148Y910826D01*
X1297273Y908813D01*
X1298915Y906421D01*
X1301074Y903648D01*
X1306940Y896962D01*
X1314873Y888756D01*
X1311138Y885021D01*
X1306845Y889245D01*
X1293473Y900979D01*
X1291081Y902621D01*
X1289068Y903746D01*
X1287436Y904355D01*
X1286183Y904447D01*
X1285311Y904023D01*
X1295871Y914583D01*
X1295446Y913711D01*
D02*
G37*
G36*
X1514785Y904023D02*
X1513913Y904447D01*
X1512660Y904355D01*
X1511028Y903746D01*
X1509015Y902621D01*
X1506623Y900979D01*
X1503850Y898820D01*
X1497164Y892953D01*
X1488958Y885021D01*
X1485223Y888756D01*
X1489447Y893049D01*
X1501181Y906421D01*
X1502823Y908813D01*
X1503948Y910826D01*
X1504557Y912458D01*
X1504650Y913711D01*
X1504225Y914583D01*
X1514785Y904023D01*
D02*
G37*
G36*
X1408615Y954080D02*
X1407781Y953129D01*
X1407045Y951544D01*
X1406407Y949325D01*
X1405868Y946472D01*
X1405426Y942985D01*
X1404838Y934109D01*
X1404642Y922698D01*
X1399358D01*
X1399311Y928721D01*
X1398172Y946472D01*
X1397650Y949325D01*
X1397033Y951544D01*
X1396321Y953129D01*
X1395515Y954080D01*
X1394613Y954397D01*
X1409547D01*
X1408615Y954080D01*
D02*
G37*
G36*
X1410824Y819073D02*
X1410462Y819018D01*
X1409529Y818811D01*
X1409269Y818729D01*
X1409035Y818639D01*
X1408825Y818543D01*
X1408642Y818440D01*
X1408483Y818330D01*
X1408351Y818214D01*
X1406985Y819578D01*
X1407102Y819711D01*
X1407212Y819870D01*
X1407315Y820053D01*
X1407411Y820263D01*
X1407501Y820497D01*
X1407583Y820757D01*
X1407728Y821354D01*
X1407790Y821690D01*
X1407845Y822052D01*
X1410824Y819073D01*
D02*
G37*
G36*
X1418069Y797907D02*
X1417771Y798121D01*
X1417461Y798313D01*
X1417140Y798482D01*
X1416808Y798629D01*
X1416464Y798753D01*
X1416110Y798854D01*
X1415744Y798933D01*
X1415367Y798990D01*
X1414979Y799024D01*
X1414580Y799035D01*
Y800965D01*
X1414979Y800976D01*
X1415367Y801010D01*
X1415744Y801067D01*
X1416110Y801146D01*
X1416464Y801247D01*
X1416808Y801371D01*
X1417140Y801518D01*
X1417461Y801687D01*
X1417771Y801879D01*
X1418069Y802093D01*
Y797907D01*
D02*
G37*
G36*
X1403879Y819446D02*
X1403687Y819136D01*
X1403518Y818815D01*
X1403371Y818483D01*
X1403247Y818140D01*
X1403146Y817785D01*
X1403067Y817420D01*
X1403010Y817043D01*
X1402977Y816655D01*
X1402965Y816255D01*
X1401035D01*
X1401024Y816655D01*
X1400990Y817043D01*
X1400933Y817420D01*
X1400854Y817785D01*
X1400753Y818140D01*
X1400629Y818483D01*
X1400482Y818815D01*
X1400313Y819136D01*
X1400121Y819446D01*
X1399907Y819745D01*
X1404093D01*
X1403879Y819446D01*
D02*
G37*
G36*
X1396370Y821436D02*
X1396577Y820503D01*
X1396659Y820243D01*
X1396749Y820009D01*
X1396845Y819799D01*
X1396948Y819616D01*
X1397058Y819457D01*
X1397175Y819324D01*
X1395809Y817960D01*
X1395677Y818076D01*
X1395518Y818186D01*
X1395335Y818289D01*
X1395125Y818385D01*
X1394891Y818475D01*
X1394631Y818557D01*
X1394034Y818702D01*
X1393698Y818764D01*
X1393336Y818819D01*
X1396315Y821798D01*
X1396370Y821436D01*
D02*
G37*
D10*
X1329636Y870258D02*
G03*
X1342644Y864870I13008J13008D01*
G01*
X1355652Y859482D02*
G03*
X1342644Y864870I-13008J-13008D01*
G01*
X1354941Y744728D02*
G03*
X1365602Y749144I0J15076D01*
G01*
X1350518Y744728D02*
G03*
X1341412Y740956I0J-12877D01*
G01*
X1451664Y856234D02*
G03*
X1459810Y859608I0J11520D01*
G01*
X1450848Y856234D02*
G03*
X1440875Y852103I0J-14104D01*
G01*
X1457191Y742958D02*
G03*
X1446784Y747268I-10407J-10407D01*
G01*
X1436378Y751579D02*
G03*
X1446784Y747268I10407J10407D01*
G01*
X1275588Y924306D02*
X1329636Y870258D01*
X1355652Y859482D02*
X1393698Y821436D01*
X1402000Y975534D02*
X1402080Y975614D01*
X1402000Y821356D02*
Y975534D01*
X1350518Y744728D02*
X1354941D01*
X1450848Y856234D02*
X1451664D01*
X1410462Y821690D02*
X1440875Y852103D01*
X1459810Y859608D02*
X1524508Y924306D01*
X1275842Y675386D02*
X1341412Y740956D01*
X1365602Y749144D02*
X1393190Y776732D01*
X1402000Y624158D02*
X1402080Y624078D01*
X1402000Y624158D02*
Y778082D01*
X1411334Y776622D02*
X1436378Y751579D01*
X1457191Y742958D02*
X1524508Y675640D01*
X1419681Y800000D02*
X1574800D01*
D11*
X1398000Y815001D02*
G03*
X1396492Y818642I-5149J0D01*
G01*
X1407668Y818896D02*
G03*
X1406000Y814869I4027J-4027D01*
G01*
X1396492Y780034D02*
G03*
X1398000Y783675I-3641J3641D01*
G01*
X1406000Y784674D02*
G03*
X1407922Y780034I6562J0D01*
G01*
X1346078Y815208D02*
X1354968D01*
X1320365Y840921D02*
X1346078Y815208D01*
X1302764Y840921D02*
X1320365D01*
X1354968Y815208D02*
X1363539Y806637D01*
X1372429D02*
X1380303D01*
X1382940Y804000D01*
X1389500D01*
X1363539Y806637D02*
X1372429D01*
X1362556Y800000D02*
X1389500D01*
X1357563Y804993D02*
X1362556Y800000D01*
X1347791Y804993D02*
X1357563D01*
X1302764Y805107D02*
X1302878Y804993D01*
X1347791D01*
Y795849D02*
X1356935D01*
X1320983Y769041D02*
X1347791Y795849D01*
X1302765Y769041D02*
X1320983D01*
X1356935Y795849D02*
X1357086Y796000D01*
X1389500D01*
X1394000Y786432D02*
Y789500D01*
X1393003Y785435D02*
X1394000Y786432D01*
X1367603Y785435D02*
X1393003D01*
X1383792Y816356D02*
X1392174D01*
X1394000Y814530D01*
Y810500D02*
Y814530D01*
X1393698Y821436D02*
X1396492Y818642D01*
X1398000Y810500D02*
Y815001D01*
X1402000Y810500D02*
Y821356D01*
X1406000Y810500D02*
Y814869D01*
X1407668Y818896D02*
X1410462Y821690D01*
X1393190Y776732D02*
X1396492Y780034D01*
X1398000Y783675D02*
Y789500D01*
X1402000Y778082D02*
Y789500D01*
X1407922Y780034D02*
X1411334Y776622D01*
X1406000Y784674D02*
Y789500D01*
X1414664Y796000D02*
X1416101Y794563D01*
Y792378D02*
Y794563D01*
X1413205Y789483D02*
X1416101Y792378D01*
X1413215Y810524D02*
X1416050Y807689D01*
Y805459D02*
Y807689D01*
X1414591Y804000D02*
X1416050Y805459D01*
X1410500Y796000D02*
X1414664D01*
X1410500Y804000D02*
X1414591D01*
X1410500Y800000D02*
X1419681D01*
D12*
X1320983Y769041D02*
D03*
X1320292Y804926D02*
D03*
X1320365Y840921D02*
D03*
X1289558Y736854D02*
D03*
X1289050Y860298D02*
D03*
D13*
X1254940Y905780D02*
D03*
X1294114Y944954D02*
D03*
X1545155Y694166D02*
D03*
X1505982Y654993D02*
D03*
D14*
X1275588Y924306D02*
D03*
X1524508Y675640D02*
D03*
D15*
X1374380Y977114D02*
D03*
X1429780D02*
D03*
Y622578D02*
D03*
X1374380D02*
D03*
D16*
X1402080Y975614D02*
D03*
Y624078D02*
D03*
D17*
X1505982Y944954D02*
D03*
X1545155Y905780D02*
D03*
X1294368Y654738D02*
D03*
X1255194Y693912D02*
D03*
D18*
X1524508Y924306D02*
D03*
X1275842Y675386D02*
D03*
D19*
X1302765Y840923D02*
D03*
Y831923D02*
D03*
Y805109D02*
D03*
Y796109D02*
D03*
Y769041D02*
D03*
Y760041D02*
D03*
X1292607Y831921D02*
D03*
Y840921D02*
D03*
Y796107D02*
D03*
Y805107D02*
D03*
Y760039D02*
D03*
Y769039D02*
D03*
D20*
X1364167Y814899D02*
D03*
X1372429Y806637D02*
D03*
D21*
X1339529Y796731D02*
D03*
X1347791Y804993D02*
D03*
X1348673Y787587D02*
D03*
X1356935Y795849D02*
D03*
X1359341Y777173D02*
D03*
X1367603Y785435D02*
D03*
D22*
X1576300Y827700D02*
D03*
Y772300D02*
D03*
D23*
X1574800Y800000D02*
D03*
D24*
X1389500Y804000D02*
D03*
Y800000D02*
D03*
Y796000D02*
D03*
X1410500D02*
D03*
Y800000D02*
D03*
Y804000D02*
D03*
D25*
X1394000Y789500D02*
D03*
X1398000D02*
D03*
X1402000D02*
D03*
X1406000D02*
D03*
Y810500D02*
D03*
X1402000D02*
D03*
X1398000D02*
D03*
X1394000D02*
D03*
D26*
X1400000Y800000D02*
D03*
D27*
X1284732Y732028D02*
X1289558Y736854D01*
X1252172Y732028D02*
X1284732D01*
X1235000Y749200D02*
X1252172Y732028D01*
X1279552Y850800D02*
X1289050Y860298D01*
X1260400Y850800D02*
X1279552D01*
X1360170Y818896D02*
X1364167Y814899D01*
X1335532Y792734D02*
X1339529Y796731D01*
X1344676Y783590D02*
X1348673Y787587D01*
X1355344Y773176D02*
X1359341Y777173D01*
X1360932Y785368D02*
X1367536D01*
X1367603Y785435D01*
X1302765Y751333D02*
Y760041D01*
X1292607Y769039D02*
X1292608Y769041D01*
X1302765D01*
X1287597Y760039D02*
X1292607D01*
X1276758Y749200D02*
X1287597Y760039D01*
X1260400Y749200D02*
X1276758D01*
X1287597Y796107D02*
X1292607D01*
X1260400Y774600D02*
X1272440D01*
X1302765Y823215D02*
Y831923D01*
X1287089Y831921D02*
X1292607D01*
X1247800Y787400D02*
X1269422D01*
X1292607Y840921D02*
X1302764D01*
X1302765Y787401D02*
X1302766Y787400D01*
X1302765Y787401D02*
Y796109D01*
X1292607Y805107D02*
X1302764D01*
X1235000Y774600D02*
X1247800Y787400D01*
X1277957Y890016D02*
X1282789Y894849D01*
X1270704Y890016D02*
X1277957D01*
X1254940Y905780D02*
X1270704Y890016D01*
X1304936Y917368D02*
X1309878Y922310D01*
Y929190D01*
X1294114Y944954D02*
X1309878Y929190D01*
X1417066Y950722D02*
X1425448D01*
X1429780Y955054D01*
Y977114D01*
X1379228Y950714D02*
X1385278D01*
X1374380Y955562D02*
X1379228Y950714D01*
X1374380Y955562D02*
Y977114D01*
X1491488Y925307D02*
X1496622Y920174D01*
X1491488Y925307D02*
Y930460D01*
X1505982Y944954D01*
X1520594Y896588D02*
X1525643Y891540D01*
X1530916D01*
X1545155Y905780D01*
X1417857Y649904D02*
X1425530D01*
X1429780Y645654D01*
Y622578D02*
Y645654D01*
X1379254Y650021D02*
X1386351D01*
X1374380Y645146D02*
X1379254Y650021D01*
X1374380Y622578D02*
Y645146D01*
X1304514Y680692D02*
X1309878Y675328D01*
Y670248D02*
Y675328D01*
X1294368Y654738D02*
X1309878Y670248D01*
X1275842Y708660D02*
X1281684Y702818D01*
X1269942Y708660D02*
X1275842D01*
X1255194Y693912D02*
X1269942Y708660D01*
X1515177Y705397D02*
X1520726Y710946D01*
X1528376D01*
X1545155Y694166D01*
X1488948Y678688D02*
X1493520Y683260D01*
X1488948Y672026D02*
Y678688D01*
Y672026D02*
X1505982Y654993D01*
X1555334Y827700D02*
X1576300D01*
X1550554Y822921D02*
X1555334Y827700D01*
X1550554Y816431D02*
Y822921D01*
X1550446Y777362D02*
Y783418D01*
Y777362D02*
X1555508Y772300D01*
X1576300D01*
X1269422Y787400D02*
X1278128Y796106D01*
Y822960D01*
X1287089Y831921D01*
X1272440Y774600D02*
X1286002Y788162D01*
Y794512D01*
X1287597Y796107D01*
D28*
X1185307Y627934D02*
G03*
X1182381Y599940I131885J-27934D01*
G01*
X1221866Y695326D02*
G03*
X1199881Y666424I95326J-95326D01*
G01*
X1179841Y599939D02*
X1317192Y600000D01*
X1200000Y717192D02*
X1223662Y693530D01*
X1182381Y599940D02*
X1187454Y615182D01*
X1177294Y615177D02*
X1182381Y599940D01*
X1207498Y688142D02*
X1221866Y695326D01*
X1214682Y680957D02*
X1221866Y695326D01*
X1600267Y1039726D02*
X1600269Y1034646D01*
X1200267Y1039582D02*
X1200269Y1034502D01*
X1585030Y1032101D02*
X1600268Y1037186D01*
X1585026Y1042261D02*
X1600268Y1037186D01*
X1200268Y1037042D02*
X1215510Y1031968D01*
X1200268Y1037042D02*
X1215506Y1042128D01*
X1499551Y1037150D02*
X1600268Y1037186D01*
X1200268Y1037042D02*
X1300985Y1037079D01*
X1482829Y581152D02*
Y586232D01*
X1317117Y581152D02*
Y586232D01*
X1482829Y583692D02*
X1498069Y578612D01*
X1482829Y583692D02*
X1498069Y588772D01*
X1301877Y578612D02*
X1317117Y583692D01*
X1301877Y588772D02*
X1317117Y583692D01*
X1482829D02*
X1508229D01*
X1291717D02*
X1317117D01*
X1630940Y600125D02*
X1636020Y600125D01*
X1630934Y1000125D02*
X1636014Y1000125D01*
X1628400Y615365D02*
X1633480Y600125D01*
X1638560Y615365D01*
X1628394Y984885D02*
X1633474Y1000125D01*
X1638554Y984885D01*
X1633479Y700842D02*
X1633480Y600125D01*
X1633474Y1000125D02*
X1633475Y899408D01*
D29*
X1200000Y717192D02*
Y882754D01*
X1317246Y1000000D01*
X1482898D01*
X1600000Y882898D01*
Y717096D02*
Y882898D01*
X1482904Y600000D02*
X1600000Y717096D01*
X1317192Y600000D02*
X1482904D01*
X1200000Y717192D02*
X1317192Y600000D01*
D30*
X1197300Y635613D02*
X1183223Y641440D01*
X1187348Y631488D01*
X1191232Y640872D01*
X1190021Y657863D02*
X1186136Y648478D01*
X1193175Y645565D01*
X1192771Y651228D01*
X1193742Y653574D01*
X1197059Y654949D01*
X1201752Y653007D01*
X1203127Y649689D01*
X1201184Y644997D01*
X1197867Y643622D01*
X1191959Y662557D02*
X1189613Y663528D01*
X1190584Y665874D01*
X1192930Y664903D01*
X1191959Y662557D01*
X1303528Y1027938D02*
X1308606Y1027940D01*
X1306067Y1027939D01*
X1306062Y1043174D01*
X1303523Y1040634D01*
X1326375Y1043181D02*
X1316218Y1043178D01*
X1316221Y1035560D01*
X1321299Y1038101D01*
X1323838Y1038102D01*
X1326378Y1035564D01*
X1326380Y1030485D01*
X1323841Y1027945D01*
X1318763Y1027943D01*
X1316223Y1030482D01*
X1331454Y1043183D02*
X1341610Y1043187D01*
X1341611Y1040648D01*
X1331458Y1030487D01*
X1331459Y1027948D01*
X1354312Y1027956D02*
X1354306Y1043191D01*
X1346691Y1035571D01*
X1356848Y1035575D01*
X1361929Y1027959D02*
X1361928Y1030498D01*
X1364467Y1030499D01*
X1364468Y1027960D01*
X1361929Y1027959D01*
X1374620Y1040659D02*
X1377159Y1043200D01*
X1382237Y1043201D01*
X1384777Y1040663D01*
X1384778Y1038124D01*
X1382240Y1035584D01*
X1384780Y1033046D01*
X1384781Y1030506D01*
X1382242Y1027966D01*
X1377164Y1027964D01*
X1374624Y1030503D01*
X1374623Y1033042D01*
X1377161Y1035582D01*
X1374621Y1038120D01*
X1374620Y1040659D01*
X1377161Y1035582D02*
X1382240Y1035584D01*
X1389855Y1040665D02*
X1392394Y1043205D01*
X1397472Y1043207D01*
X1400012Y1040669D01*
X1400016Y1030512D01*
X1397478Y1027972D01*
X1392399Y1027970D01*
X1389859Y1030508D01*
X1389855Y1040665D01*
X1405091Y1040670D02*
X1407629Y1043211D01*
X1412707Y1043212D01*
X1415247Y1040674D01*
X1415248Y1038135D01*
X1412710Y1035595D01*
X1410171Y1035594D01*
X1412710Y1035595D01*
X1415250Y1033057D01*
X1415251Y1030517D01*
X1412713Y1027977D01*
X1407634Y1027975D01*
X1405094Y1030514D01*
X1440644Y1027987D02*
X1435563Y1033064D01*
X1435562Y1038142D01*
X1440638Y1043222D01*
X1448261Y1027990D02*
X1448257Y1038147D01*
X1450797Y1038148D01*
X1453337Y1035610D01*
X1453340Y1027992D01*
X1453337Y1035610D01*
X1455875Y1038150D01*
X1458415Y1035611D01*
X1458418Y1027994D01*
X1463496Y1027996D02*
X1468575Y1027997D01*
X1466035Y1027997D01*
X1466032Y1038153D01*
X1463493Y1038152D01*
X1476192Y1028000D02*
X1481270Y1028002D01*
X1478731Y1028001D01*
X1478726Y1043236D01*
X1476187Y1043235D01*
X1488888Y1028005D02*
X1493965Y1033085D01*
X1493963Y1038163D01*
X1488882Y1043240D01*
X1319734Y562361D02*
X1314656Y559822D01*
X1309578Y554743D01*
Y549665D01*
X1312117Y547126D01*
X1317195D01*
X1319734Y549665D01*
Y552204D01*
X1317195Y554743D01*
X1309578D01*
X1334970Y562361D02*
X1324813D01*
Y554743D01*
X1329891Y557283D01*
X1332430D01*
X1334970Y554743D01*
Y549665D01*
X1332430Y547126D01*
X1327352D01*
X1324813Y549665D01*
X1350205Y547126D02*
X1340048D01*
X1350205Y557283D01*
Y559822D01*
X1347666Y562361D01*
X1342587D01*
X1340048Y559822D01*
X1355283Y547126D02*
Y549665D01*
X1357822D01*
Y547126D01*
X1355283D01*
X1375596D02*
Y562361D01*
X1367979Y554743D01*
X1378136D01*
X1383214Y559822D02*
X1385753Y562361D01*
X1390831D01*
X1393371Y559822D01*
Y549665D01*
X1390831Y547126D01*
X1385753D01*
X1383214Y549665D01*
Y559822D01*
X1398449Y549665D02*
X1400988Y547126D01*
X1406067D01*
X1408606Y549665D01*
Y559822D01*
X1406067Y562361D01*
X1400988D01*
X1398449Y559822D01*
Y557283D01*
X1400988Y554743D01*
X1408606D01*
X1433997Y547126D02*
X1428919Y552204D01*
Y557283D01*
X1433997Y562361D01*
X1441615Y547126D02*
Y557283D01*
X1444154D01*
X1446693Y554743D01*
Y547126D01*
Y554743D01*
X1449233Y557283D01*
X1451772Y554743D01*
Y547126D01*
X1456850D02*
X1461929D01*
X1459389D01*
Y557283D01*
X1456850D01*
X1469546Y547126D02*
X1474624D01*
X1472085D01*
Y562361D01*
X1469546D01*
X1482242Y547126D02*
X1487320Y552204D01*
Y557283D01*
X1482242Y562361D01*
X1624334Y896868D02*
X1624334Y891790D01*
X1624334Y894329D01*
X1639569Y894329D01*
X1637030Y896868D01*
X1639569Y874016D02*
X1639569Y884172D01*
X1631952Y884172D01*
X1634491Y879094D01*
X1634491Y876555D01*
X1631952Y874016D01*
X1626873Y874016D01*
X1624334Y876555D01*
X1624334Y881633D01*
X1626873Y884172D01*
X1639570Y868937D02*
X1639570Y858781D01*
X1637030Y858781D01*
X1626874Y868937D01*
X1624334Y868937D01*
X1624335Y846085D02*
X1639570Y846085D01*
X1631952Y853702D01*
X1631952Y843545D01*
X1624335Y838467D02*
X1626874Y838467D01*
X1626874Y835928D01*
X1624335Y835928D01*
X1624335Y838467D01*
X1637031Y825771D02*
X1639570Y823232D01*
X1639570Y818154D01*
X1637031Y815614D01*
X1634492Y815614D01*
X1631953Y818154D01*
X1629414Y815614D01*
X1626874Y815614D01*
X1624335Y818154D01*
X1624335Y823232D01*
X1626874Y825771D01*
X1629413Y825771D01*
X1631953Y823232D01*
X1634492Y825771D01*
X1637031Y825771D01*
X1631953Y823232D02*
X1631953Y818154D01*
X1637031Y810536D02*
X1639570Y807997D01*
X1639570Y802919D01*
X1637031Y800379D01*
X1626875Y800379D01*
X1624335Y802918D01*
X1624335Y807997D01*
X1626875Y810536D01*
X1637031Y810536D01*
X1637031Y795301D02*
X1639571Y792762D01*
X1639571Y787684D01*
X1637032Y785144D01*
X1634492Y785144D01*
X1631953Y787683D01*
X1631953Y790223D01*
X1631953Y787683D01*
X1629414Y785144D01*
X1626875Y785144D01*
X1624336Y787683D01*
X1624336Y792762D01*
X1626875Y795301D01*
X1624336Y759752D02*
X1629414Y764831D01*
X1634493Y764831D01*
X1639571Y759753D01*
X1624336Y752135D02*
X1634493Y752135D01*
X1634493Y749596D01*
X1631954Y747057D01*
X1624336Y747057D01*
X1631954Y747057D01*
X1634493Y744518D01*
X1631954Y741978D01*
X1624336Y741978D01*
X1624336Y736900D02*
X1624337Y731822D01*
X1624337Y734361D01*
X1634493Y734361D01*
X1634493Y736900D01*
X1624337Y724204D02*
X1624337Y719126D01*
X1624337Y721665D01*
X1639572Y721665D01*
X1639572Y724204D01*
X1624337Y711508D02*
X1629415Y706430D01*
X1634494Y706430D01*
X1639572Y711508D01*
D31*
X1355344Y913384D02*
D03*
Y686816D02*
D03*
X1511554Y845566D02*
D03*
Y754634D02*
D03*
D32*
X1260400Y749200D02*
D03*
X1235000D02*
D03*
X1260400Y774600D02*
D03*
X1235000D02*
D03*
X1260400Y800000D02*
D03*
X1235000D02*
D03*
X1260400Y825400D02*
D03*
X1235000D02*
D03*
X1260400Y850800D02*
D03*
D33*
X1235000D02*
D03*
D34*
X1349808Y732099D02*
D03*
X1349059Y754331D02*
D03*
X1357879Y840041D02*
D03*
X1355364Y874278D02*
D03*
X1347075Y876702D02*
D03*
X1363986Y833934D02*
D03*
X1366700Y735251D02*
D03*
X1360170Y818896D02*
D03*
X1335532Y792734D02*
D03*
X1344676Y783590D02*
D03*
X1355344Y773176D02*
D03*
X1360932Y785368D02*
D03*
X1282789Y894849D02*
D03*
X1315517Y867162D02*
D03*
X1321623Y861055D02*
D03*
X1314248Y903042D02*
D03*
X1345398Y851973D02*
D03*
X1368797Y863552D02*
D03*
X1362604Y869571D02*
D03*
X1328705Y856114D02*
D03*
X1304936Y917368D02*
D03*
X1326370Y890739D02*
D03*
X1376199Y821721D02*
D03*
X1309411Y873269D02*
D03*
X1303304Y879376D02*
D03*
X1296997Y885275D02*
D03*
X1389380Y845566D02*
D03*
X1351772Y846147D02*
D03*
X1381010Y851338D02*
D03*
X1338648Y878592D02*
D03*
X1370092Y827827D02*
D03*
X1383792Y816356D02*
D03*
X1290506Y890971D02*
D03*
X1336860Y853270D02*
D03*
X1320263Y896845D02*
D03*
X1374903Y857445D02*
D03*
X1308534Y909518D02*
D03*
X1332476Y884632D02*
D03*
X1302765Y751333D02*
D03*
Y823215D02*
D03*
X1302766Y787400D02*
D03*
X1495365Y721997D02*
D03*
X1477045Y740317D02*
D03*
X1493520Y683260D02*
D03*
X1460520Y722457D02*
D03*
X1416304Y753618D02*
D03*
X1515177Y705397D02*
D03*
X1441641Y763529D02*
D03*
X1470939Y746424D02*
D03*
X1440266Y737820D02*
D03*
X1426718Y776986D02*
D03*
X1472733Y710244D02*
D03*
X1508072Y710306D02*
D03*
X1432074Y740553D02*
D03*
X1489258Y728104D02*
D03*
X1454414Y728564D02*
D03*
X1457536Y757173D02*
D03*
X1490403Y691314D02*
D03*
X1478830Y704127D02*
D03*
X1448307Y734670D02*
D03*
X1424686Y745998D02*
D03*
X1434084Y770128D02*
D03*
X1466627Y716350D02*
D03*
X1484782Y697870D02*
D03*
X1483152Y734211D02*
D03*
X1449162Y759284D02*
D03*
X1464792Y752490D02*
D03*
X1501581Y716002D02*
D03*
X1385278Y950714D02*
D03*
X1388760Y942811D02*
D03*
X1389344Y934195D02*
D03*
X1389888Y925576D02*
D03*
Y916940D02*
D03*
Y908304D02*
D03*
Y899668D02*
D03*
Y891032D02*
D03*
Y882396D02*
D03*
Y873760D02*
D03*
Y865124D02*
D03*
Y856488D02*
D03*
X1414218Y856044D02*
D03*
Y864680D02*
D03*
Y873316D02*
D03*
Y881952D02*
D03*
Y890588D02*
D03*
Y899224D02*
D03*
Y907860D02*
D03*
Y916496D02*
D03*
Y925132D02*
D03*
X1414322Y933767D02*
D03*
X1414794Y942390D02*
D03*
X1417066Y950722D02*
D03*
X1496622Y920174D02*
D03*
X1493554Y912101D02*
D03*
X1487858Y905610D02*
D03*
X1482132Y899145D02*
D03*
X1476026Y893038D02*
D03*
X1469919Y886932D02*
D03*
X1463813Y880825D02*
D03*
X1457706Y874718D02*
D03*
X1451594Y868617D02*
D03*
X1443079Y867178D02*
D03*
X1435346Y863333D02*
D03*
X1429016Y857458D02*
D03*
X1422909Y851352D02*
D03*
X1415288Y845566D02*
D03*
X1427793Y821806D02*
D03*
X1433899Y827913D02*
D03*
X1440006Y834019D02*
D03*
X1446112Y840126D02*
D03*
X1453737Y844182D02*
D03*
X1462063Y846473D02*
D03*
X1469014Y851598D02*
D03*
X1475121Y857704D02*
D03*
X1481227Y863811D02*
D03*
X1487334Y869918D02*
D03*
X1493441Y876024D02*
D03*
X1499577Y882101D02*
D03*
X1505887Y887997D02*
D03*
X1512519Y893529D02*
D03*
X1520594Y896588D02*
D03*
X1389828Y744519D02*
D03*
Y735883D02*
D03*
Y727247D02*
D03*
Y718611D02*
D03*
Y709975D02*
D03*
Y701339D02*
D03*
Y692703D02*
D03*
Y684067D02*
D03*
Y675431D02*
D03*
X1389708Y666796D02*
D03*
X1389195Y658175D02*
D03*
X1386351Y650021D02*
D03*
X1417857Y649904D02*
D03*
X1415046Y658070D02*
D03*
X1414475Y666687D02*
D03*
X1414172Y675318D02*
D03*
Y683954D02*
D03*
Y692590D02*
D03*
Y701226D02*
D03*
Y709862D02*
D03*
Y718498D02*
D03*
Y727134D02*
D03*
Y735770D02*
D03*
Y744406D02*
D03*
X1375206Y776301D02*
D03*
X1369100Y770194D02*
D03*
X1362993Y764087D02*
D03*
X1356886Y757981D02*
D03*
X1340492Y753245D02*
D03*
X1332748Y749423D02*
D03*
X1326434Y743531D02*
D03*
X1320328Y737424D02*
D03*
X1314221Y731317D02*
D03*
X1308114Y725211D02*
D03*
X1302008Y719104D02*
D03*
X1295838Y713061D02*
D03*
X1289436Y707266D02*
D03*
X1281684Y702818D02*
D03*
X1304514Y680692D02*
D03*
X1307763Y688693D02*
D03*
X1313459Y695184D02*
D03*
X1319256Y701585D02*
D03*
X1325363Y707692D02*
D03*
X1331469Y713799D02*
D03*
X1337576Y719905D02*
D03*
X1343682Y726012D02*
D03*
X1358414Y732818D02*
D03*
X1373802Y740164D02*
D03*
X1379926Y746254D02*
D03*
X1388110Y753618D02*
D03*
X1550554Y816431D02*
D03*
X1542568Y813146D02*
D03*
X1533950Y812583D02*
D03*
X1525324Y812172D02*
D03*
X1516688D02*
D03*
X1508052D02*
D03*
X1499416D02*
D03*
X1490780D02*
D03*
X1482144D02*
D03*
X1473508D02*
D03*
X1464872D02*
D03*
X1456236D02*
D03*
X1447600D02*
D03*
X1438964D02*
D03*
X1430328D02*
D03*
X1421692D02*
D03*
X1413215Y810524D02*
D03*
X1413205Y789483D02*
D03*
X1421683Y787839D02*
D03*
X1430319D02*
D03*
X1438955D02*
D03*
X1447591D02*
D03*
X1456227D02*
D03*
X1464863D02*
D03*
X1473499D02*
D03*
X1482135D02*
D03*
X1490771D02*
D03*
X1499407D02*
D03*
X1508043D02*
D03*
X1516679D02*
D03*
X1525315Y787822D02*
D03*
X1533948Y787602D02*
D03*
X1550446Y783418D02*
D03*
X1542559Y786935D02*
D03*
D35*
X1401953Y801878D02*
D03*
Y798068D02*
D03*
X1398143Y801878D02*
D03*
Y798068D02*
D03*
M02*
